<svg width="1084" height="881" viewBox="0 0 1084 881" fill="none" xmlns="http://www.w3.org/2000/svg">
<g filter="url(#filter0_ddddddf_2162_5232)">
<path d="M734.702 46.8682L702.654 107.876C699.313 114.244 692.403 119.613 685.03 121.557L202.852 249.366C185.669 253.584 173.212 269.648 175.421 281.507C170.545 271.277 179.774 255.378 195.723 248.805L718.498 33.6397C730.906 28.518 740.111 36.0771 734.702 46.8682Z" fill="white"/>
<path d="M990.286 56.0161L692.137 129.472L686.979 130.76L685.416 131.157L202.873 249.339C185.691 253.557 173.228 269.634 175.458 281.48C175.654 282.931 176.187 284.246 176.892 285.533C177.149 286.177 177.631 286.738 178.047 287.245C178.226 287.642 178.481 287.888 178.736 288.135C178.736 288.135 265.276 471.31 440.379 618.141C473.824 646.31 510.605 673.096 550.608 696.952C562.575 704.182 581.687 700.855 591.734 685.75C591.734 685.75 852.518 401.209 1002.15 72.2439C1006.86 61.7814 1002.27 53.0171 990.286 56.0161ZM574.623 407.536L492.502 465.408L510.343 386.994L446.497 353.06L537.477 316.619L580.119 237.726L618.454 293.64L708.675 278.782L641.461 349.801L654.536 419.505L574.623 407.536Z" fill="white"/>
</g>
<defs>
<filter id="filter0_ddddddf_2162_5232" x="94.1162" y="0" width="989.854" height="880.618" filterUnits="userSpaceOnUse" color-interpolation-filters="sRGB">
<feFlood flood-opacity="0" result="BackgroundImageFix"/>
<feColorMatrix in="SourceAlpha" type="matrix" values="0 0 0 0 0 0 0 0 0 0 0 0 0 0 0 0 0 0 127 0" result="hardAlpha"/>
<feOffset dy="2.76726"/>
<feGaussianBlur stdDeviation="1.1069"/>
<feColorMatrix type="matrix" values="0 0 0 0 0 0 0 0 0 0 0 0 0 0 0 0 0 0 0.0196802 0"/>
<feBlend mode="normal" in2="BackgroundImageFix" result="effect1_dropShadow_2162_5232"/>
<feColorMatrix in="SourceAlpha" type="matrix" values="0 0 0 0 0 0 0 0 0 0 0 0 0 0 0 0 0 0 127 0" result="hardAlpha"/>
<feOffset dy="6.6501"/>
<feGaussianBlur stdDeviation="2.66004"/>
<feColorMatrix type="matrix" values="0 0 0 0 0 0 0 0 0 0 0 0 0 0 0 0 0 0 0.0282725 0"/>
<feBlend mode="normal" in2="effect1_dropShadow_2162_5232" result="effect2_dropShadow_2162_5232"/>
<feColorMatrix in="SourceAlpha" type="matrix" values="0 0 0 0 0 0 0 0 0 0 0 0 0 0 0 0 0 0 127 0" result="hardAlpha"/>
<feOffset dy="12.5216"/>
<feGaussianBlur stdDeviation="5.00862"/>
<feColorMatrix type="matrix" values="0 0 0 0 0 0 0 0 0 0 0 0 0 0 0 0 0 0 0.035 0"/>
<feBlend mode="normal" in2="effect2_dropShadow_2162_5232" result="effect3_dropShadow_2162_5232"/>
<feColorMatrix in="SourceAlpha" type="matrix" values="0 0 0 0 0 0 0 0 0 0 0 0 0 0 0 0 0 0 127 0" result="hardAlpha"/>
<feOffset dy="22.3363"/>
<feGaussianBlur stdDeviation="8.93452"/>
<feColorMatrix type="matrix" values="0 0 0 0 0 0 0 0 0 0 0 0 0 0 0 0 0 0 0.0417275 0"/>
<feBlend mode="normal" in2="effect3_dropShadow_2162_5232" result="effect4_dropShadow_2162_5232"/>
<feColorMatrix in="SourceAlpha" type="matrix" values="0 0 0 0 0 0 0 0 0 0 0 0 0 0 0 0 0 0 127 0" result="hardAlpha"/>
<feOffset dy="41.7776"/>
<feGaussianBlur stdDeviation="16.711"/>
<feColorMatrix type="matrix" values="0 0 0 0 0 0 0 0 0 0 0 0 0 0 0 0 0 0 0.0503198 0"/>
<feBlend mode="normal" in2="effect4_dropShadow_2162_5232" result="effect5_dropShadow_2162_5232"/>
<feColorMatrix in="SourceAlpha" type="matrix" values="0 0 0 0 0 0 0 0 0 0 0 0 0 0 0 0 0 0 127 0" result="hardAlpha"/>
<feOffset dy="100"/>
<feGaussianBlur stdDeviation="40"/>
<feColorMatrix type="matrix" values="0 0 0 0 0 0 0 0 0 0 0 0 0 0 0 0 0 0 0.07 0"/>
<feBlend mode="normal" in2="effect5_dropShadow_2162_5232" result="effect6_dropShadow_2162_5232"/>
<feBlend mode="normal" in="SourceGraphic" in2="effect6_dropShadow_2162_5232" result="shape"/>
<feGaussianBlur stdDeviation="16" result="effect7_foregroundBlur_2162_5232"/>
</filter>
</defs>
</svg>
