<svg width="1084" height="875" viewBox="0 0 1084 875" fill="none" xmlns="http://www.w3.org/2000/svg">
<g filter="url(#filter0_ddddddf_2162_5232)">
<path d="M734.702 40.8682L702.654 101.876C699.313 108.244 692.403 113.613 685.03 115.557L202.852 243.366C185.669 247.584 173.212 263.648 175.421 275.507C170.545 265.277 179.774 249.378 195.723 242.805L718.498 27.6397C730.906 22.518 740.111 30.0771 734.702 40.8682Z" fill="white"/>
<path d="M990.286 50.0161L692.137 123.472L686.979 124.76L685.416 125.157L202.873 243.339C185.691 247.557 173.228 263.634 175.458 275.48C175.654 276.931 176.187 278.246 176.892 279.533C177.149 280.177 177.631 280.738 178.047 281.245C178.226 281.642 178.481 281.888 178.736 282.135C178.736 282.135 265.276 465.31 440.379 612.141C473.824 640.31 510.605 667.096 550.608 690.952C562.575 698.182 581.687 694.855 591.734 679.75C591.734 679.75 852.518 395.209 1002.15 66.2439C1006.86 55.7814 1002.27 47.0171 990.286 50.0161ZM574.623 401.536L492.502 459.408L510.343 380.994L446.497 347.06L537.477 310.619L580.119 231.726L618.454 287.64L708.675 272.782L641.461 343.801L654.536 413.505L574.623 401.536Z" fill="white"/>
</g>
<defs>
<filter id="filter0_ddddddf_2162_5232" x="94.1162" y="0" width="989.854" height="874.618" filterUnits="userSpaceOnUse" color-interpolation-filters="sRGB">
<feFlood flood-opacity="0" result="BackgroundImageFix"/>
<feColorMatrix in="SourceAlpha" type="matrix" values="0 0 0 0 0 0 0 0 0 0 0 0 0 0 0 0 0 0 127 0" result="hardAlpha"/>
<feOffset dy="2.76726"/>
<feGaussianBlur stdDeviation="1.1069"/>
<feColorMatrix type="matrix" values="0 0 0 0 0 0 0 0 0 0 0 0 0 0 0 0 0 0 0.0196802 0"/>
<feBlend mode="normal" in2="BackgroundImageFix" result="effect1_dropShadow_2162_5232"/>
<feColorMatrix in="SourceAlpha" type="matrix" values="0 0 0 0 0 0 0 0 0 0 0 0 0 0 0 0 0 0 127 0" result="hardAlpha"/>
<feOffset dy="6.6501"/>
<feGaussianBlur stdDeviation="2.66004"/>
<feColorMatrix type="matrix" values="0 0 0 0 0 0 0 0 0 0 0 0 0 0 0 0 0 0 0.0282725 0"/>
<feBlend mode="normal" in2="effect1_dropShadow_2162_5232" result="effect2_dropShadow_2162_5232"/>
<feColorMatrix in="SourceAlpha" type="matrix" values="0 0 0 0 0 0 0 0 0 0 0 0 0 0 0 0 0 0 127 0" result="hardAlpha"/>
<feOffset dy="12.5216"/>
<feGaussianBlur stdDeviation="5.00862"/>
<feColorMatrix type="matrix" values="0 0 0 0 0 0 0 0 0 0 0 0 0 0 0 0 0 0 0.035 0"/>
<feBlend mode="normal" in2="effect2_dropShadow_2162_5232" result="effect3_dropShadow_2162_5232"/>
<feColorMatrix in="SourceAlpha" type="matrix" values="0 0 0 0 0 0 0 0 0 0 0 0 0 0 0 0 0 0 127 0" result="hardAlpha"/>
<feOffset dy="22.3363"/>
<feGaussianBlur stdDeviation="8.93452"/>
<feColorMatrix type="matrix" values="0 0 0 0 0 0 0 0 0 0 0 0 0 0 0 0 0 0 0.0417275 0"/>
<feBlend mode="normal" in2="effect3_dropShadow_2162_5232" result="effect4_dropShadow_2162_5232"/>
<feColorMatrix in="SourceAlpha" type="matrix" values="0 0 0 0 0 0 0 0 0 0 0 0 0 0 0 0 0 0 127 0" result="hardAlpha"/>
<feOffset dy="41.7776"/>
<feGaussianBlur stdDeviation="16.711"/>
<feColorMatrix type="matrix" values="0 0 0 0 0 0 0 0 0 0 0 0 0 0 0 0 0 0 0.0503198 0"/>
<feBlend mode="normal" in2="effect4_dropShadow_2162_5232" result="effect5_dropShadow_2162_5232"/>
<feColorMatrix in="SourceAlpha" type="matrix" values="0 0 0 0 0 0 0 0 0 0 0 0 0 0 0 0 0 0 127 0" result="hardAlpha"/>
<feOffset dy="100"/>
<feGaussianBlur stdDeviation="40"/>
<feColorMatrix type="matrix" values="0 0 0 0 0 0 0 0 0 0 0 0 0 0 0 0 0 0 0.07 0"/>
<feBlend mode="normal" in2="effect5_dropShadow_2162_5232" result="effect6_dropShadow_2162_5232"/>
<feBlend mode="normal" in="SourceGraphic" in2="effect6_dropShadow_2162_5232" result="shape"/>
<feGaussianBlur stdDeviation="13" result="effect7_foregroundBlur_2162_5232"/>
</filter>
</defs>
</svg>
