<svg width="333" height="478" viewBox="0 0 333 478" fill="none" xmlns="http://www.w3.org/2000/svg">
<g clip-path="url(#clip0_2039_2)">
<path d="M292.324 164.269C316.652 148.352 332.805 120.789 332.805 89.5385C332.805 40.2357 292.518 0.25 243.279 0.25H89.5266C40.0923 0.25 0 40.4298 0 89.5385C0 120.789 16.1537 148.352 40.4816 164.269C16.1537 180.186 0 207.749 0 239C0 270.251 16.1537 297.814 40.4816 313.73C16.1537 329.647 0 357.21 0 388.461C0 437.764 40.4816 477.749 90.1105 477.749C140.323 477.749 181.194 437.181 181.194 387.49V304.996C197.153 319.359 218.367 328.288 241.527 328.288H243.473C292.908 328.288 333 288.108 333 239C332.805 207.749 316.652 180.186 292.324 164.269ZM151.806 387.49C151.806 421.071 124.169 448.634 90.1105 448.634C56.6353 448.634 29.3881 421.653 29.3881 388.461C29.3881 355.269 56.4407 328.482 89.5266 328.288H151.806V387.49ZM151.806 299.172H89.5266C56.2461 299.172 29.3881 272.192 29.3881 239C29.3881 205.808 56.4407 178.827 89.7212 178.827H152.001V299.172H151.806ZM151.806 149.711H89.5266C56.2461 149.711 29.1935 122.731 29.1935 89.5385C29.1935 56.3465 56.2461 29.3658 89.5266 29.3658H151.806V149.711ZM180.999 29.3658H243.279C276.559 29.3658 303.612 56.3465 303.612 89.5385C303.612 122.731 276.559 149.711 243.279 149.711H180.999V29.3658ZM243.279 299.172H241.333C208.052 299.172 180.999 272.192 180.999 239C180.999 205.808 208.052 178.827 241.333 178.827H243.279C276.559 178.827 303.612 205.808 303.612 239C303.612 272.192 276.559 299.172 243.279 299.172Z" fill="#1D1F23"/>
</g>
<defs>
<clipPath id="clip0_2039_2">
<rect width="333" height="478" fill="white"/>
</clipPath>
</defs>
</svg>
