<svg width="1088" height="430" viewBox="0 0 1088 430" fill="none" xmlns="http://www.w3.org/2000/svg">
<path d="M425.291 112.966C405.241 112.966 388.496 126.634 383.869 145.151H324.158C300.803 145.151 281.634 164.109 281.634 187.697C281.634 199.381 272.16 208.86 260.482 208.86H251.889C247.262 190.342 230.296 176.675 210.466 176.675C190.416 176.675 173.671 190.342 169.044 208.86H134.892C130.265 190.342 113.299 176.675 93.4693 176.675C69.8936 176.675 50.7246 195.853 50.7246 219.441C50.7246 243.029 69.8936 262.207 93.4693 262.207C113.52 262.207 130.265 248.54 134.892 230.022H169.044C173.671 248.54 190.636 262.207 210.466 262.207C230.296 262.207 247.042 248.76 251.889 230.243H260.482C272.16 230.243 281.634 239.722 281.634 251.405C281.634 274.773 300.583 293.951 324.158 293.951H338.039C342.666 312.469 359.632 326.136 379.462 326.136C403.038 326.136 422.207 306.957 422.207 283.37C422.207 259.782 403.038 240.604 379.462 240.604C359.412 240.604 342.666 254.271 338.039 272.789H324.158C312.481 272.789 303.006 263.309 303.006 251.626C303.006 238.84 297.278 227.377 288.244 219.661C297.278 211.946 303.006 200.483 303.006 187.697C303.006 176.013 312.481 166.534 324.158 166.534H383.869C388.496 185.052 405.461 198.719 425.291 198.719C448.867 198.719 468.036 179.541 468.036 155.953C468.256 132.365 448.867 112.966 425.291 112.966ZM93.4693 241.265C81.5713 241.265 71.8766 231.565 71.8766 219.661C71.8766 207.757 81.5713 198.058 93.4693 198.058C105.367 198.058 115.062 207.757 115.062 219.661C115.282 231.565 105.588 241.265 93.4693 241.265ZM210.466 241.265C198.568 241.265 188.874 231.565 188.874 219.661C188.874 207.757 198.568 198.058 210.466 198.058C222.364 198.058 232.059 207.757 232.059 219.661C232.279 231.565 222.585 241.265 210.466 241.265ZM379.462 261.987C391.36 261.987 401.055 271.686 401.055 283.59C401.055 295.494 391.36 305.194 379.462 305.194C367.564 305.194 357.869 295.494 357.869 283.59C357.869 271.686 367.564 261.987 379.462 261.987ZM425.291 177.557C413.393 177.557 403.699 167.857 403.699 155.953C403.699 144.049 413.393 134.349 425.291 134.349C437.189 134.349 446.884 144.049 446.884 155.953C446.884 167.857 437.189 177.557 425.291 177.557Z" fill="#1D1F23"/>
<path d="M497.622 209.404C497.622 206.759 496.3 205.657 493.877 205.657H486.826V191.328H502.91C510.402 191.328 513.927 194.635 513.927 201.028V204.334C513.927 207.2 513.486 209.404 513.486 209.404H513.927C517.452 201.909 527.588 189.564 546.536 189.564C567.248 189.564 576.502 200.807 576.502 222.852V260.548C576.502 263.193 577.824 264.295 580.247 264.295H587.298V278.624H570.773C563.062 278.624 559.757 275.317 559.757 267.602V226.82C559.757 214.695 557.333 204.996 543.452 204.996C530.011 204.996 519.435 213.813 515.91 226.379C514.808 229.906 514.368 233.874 514.368 238.062V278.844H497.622V209.404Z" fill="#1D1F23"/>
<path d="M622.111 212.491V212.05C622.111 212.05 607.128 204.114 607.128 187.36C607.128 170.606 620.569 154.955 644.805 154.955C667.94 154.955 682.703 168.843 682.703 187.801C682.703 205.657 668.161 216.679 668.161 216.679V217.12C679.177 223.513 686.228 231.89 686.228 244.896C686.228 263.854 669.042 280.387 644.365 280.387C621.45 280.387 602.061 266.059 602.061 243.573C602.061 223.513 622.111 212.491 622.111 212.491ZM644.365 264.736C657.144 264.736 668.822 256.359 668.822 244.235C668.822 233.653 659.788 229.024 648.331 224.395C643.704 222.411 637.094 219.986 635.772 219.986C631.585 219.986 619.247 229.906 619.247 242.912C619.467 256.139 631.145 264.736 644.365 264.736ZM653.398 209.625C657.585 209.625 666.178 199.484 666.178 188.683C666.178 177.44 657.144 170.386 644.805 170.386C631.585 170.386 623.874 177.881 623.874 187.58C623.874 198.162 632.907 202.35 643.704 206.759C646.348 207.861 651.195 209.625 653.398 209.625Z" fill="#1D1F23"/>
<path d="M712.667 209.404C712.667 206.759 711.345 205.657 708.922 205.657H701.871V191.328H717.955C725.447 191.328 728.972 194.635 728.972 201.028V204.334C728.972 207.2 728.531 209.404 728.531 209.404H728.972C732.497 201.909 742.633 189.564 761.581 189.564C782.293 189.564 791.547 200.807 791.547 222.852V260.548C791.547 263.193 792.869 264.295 795.292 264.295H802.343V278.624H785.818C778.106 278.624 774.801 275.317 774.801 267.602V226.82C774.801 214.695 772.378 204.996 758.497 204.996C745.056 204.996 734.48 213.813 730.955 226.379C729.853 229.906 729.413 233.874 729.413 238.062V278.844H712.667V209.404Z" fill="#1D1F23"/>
<path d="M821.953 260.547H838.919V278.183H821.953V260.547Z" fill="#1D1F23"/>
<path d="M862.054 209.405C862.054 206.759 860.732 205.657 858.309 205.657H851.258V191.328H867.562C875.274 191.328 878.579 194.635 878.579 202.35V260.327C878.579 262.973 879.901 264.075 882.325 264.075H889.375V278.404H873.071C865.359 278.404 862.054 275.097 862.054 267.381V209.405Z" fill="#1D1F23"/>
<path d="M951.068 189.124C977.067 189.124 997.999 208.302 997.999 234.535C997.999 260.988 977.067 280.167 951.068 280.167C925.069 280.167 904.357 260.988 904.357 234.535C904.357 208.302 925.069 189.124 951.068 189.124ZM951.068 265.838C967.593 265.838 981.033 252.832 981.033 234.535C981.033 216.459 967.593 203.673 951.068 203.673C934.763 203.673 921.323 216.459 921.323 234.535C921.323 252.832 934.763 265.838 951.068 265.838Z" fill="#1D1F23"/>
<path d="M869.705 186.154C861.112 186.154 854.281 179.1 854.281 170.723C854.281 162.346 861.332 155.292 869.705 155.292C878.077 155.292 885.128 162.346 885.128 170.723C885.128 179.1 878.077 186.154 869.705 186.154ZM869.705 162.566C865.298 162.566 861.552 166.093 861.552 170.723C861.552 175.352 865.078 178.879 869.705 178.879C874.332 178.879 877.857 175.352 877.857 170.723C877.857 166.093 874.111 162.566 869.705 162.566Z" fill="#1D1F23"/>
</svg>
