<svg width="109" height="40" viewBox="0 0 109 40" fill="none" xmlns="http://www.w3.org/2000/svg">
<path d="M25.4963 0.870444L25.0946 4.44211C25.0529 4.81491 24.7956 5.12919 24.438 5.24303L1.06789 12.7255C0.22769 12.9724 -0.096202 13.9128 0.283813 14.6071C-0.205236 14.0082 -0.0529248 13.0774 0.668623 12.6926L24.3266 0.0959926C24.8878 -0.203851 25.5532 0.238689 25.4963 0.870444Z" fill="white"/>
<path d="M39.5703 1.40649L24.9974 5.70691L24.7457 5.78227L24.6695 5.80552L1.0685 12.7244C0.228299 12.9713 -0.0955872 13.9125 0.28523 14.606C0.327721 14.691 0.385451 14.7679 0.451993 14.8433C0.480054 14.881 0.518536 14.9139 0.552208 14.9435C0.570648 14.9668 0.589876 14.9812 0.609118 14.9956C0.609118 14.9956 9.32381 25.7194 22.0487 34.3155C24.4819 35.9646 27.0659 37.5328 29.7605 38.9294C30.5686 39.3527 31.5331 39.1579 31.7471 38.2736C31.7471 38.2736 39.6625 21.6154 40.57 2.35652C40.5965 1.74401 40.1547 1.23091 39.5703 1.40649ZM24.7168 21.9858L21.5284 25.3739L20.7772 20.7832L16.5673 18.7966L20.7066 16.6632L21.2911 12.0445L24.5982 15.3179L29.1696 14.4481L27.0787 18.6058L29.3171 22.6865L24.7168 21.9858Z" fill="white"/>
<path d="M48.9753 11.3877V16.5155C49.3537 16.2974 49.7682 16.1267 50.2196 16.0024C50.6693 15.8789 51.0918 15.8172 51.4847 15.8172C53.1001 15.8172 54.3219 16.3519 55.1509 17.4214C55.9807 18.4901 56.3952 19.8186 56.3952 21.4036C56.3952 23.0046 55.9767 24.3427 55.1405 25.4186C54.3043 26.4961 53.0632 27.034 51.4197 27.034C50.8818 27.034 50.3101 26.9282 49.7073 26.7174C49.1028 26.5065 48.5616 26.2267 48.0814 25.8772C47.9795 26.0231 47.8705 26.1762 47.7543 26.335C47.6372 26.4961 47.521 26.6484 47.4047 26.7935H45.79V11.6274L48.9753 11.3877ZM53.0993 21.426C53.0993 20.67 52.9246 19.9933 52.5758 19.3969C52.2263 18.8004 51.5865 18.5021 50.6549 18.5021C50.4072 18.5021 50.1313 18.5527 49.8259 18.6545C49.5204 18.7563 49.2366 18.8806 48.9745 19.0257V23.739C49.2358 23.9282 49.5269 24.0813 49.8467 24.1976C50.1666 24.3146 50.4721 24.3723 50.7639 24.3723C51.6218 24.3723 52.2255 24.0484 52.575 23.4015C52.9246 22.7537 53.0993 22.0947 53.0993 21.426Z" fill="white"/>
<path d="M62.7219 15.9053C64.0456 15.9053 65.1335 16.2837 65.9841 17.0405C66.8348 17.7973 67.2605 18.7714 67.2605 19.9644V26.795H65.6891L64.9908 25.9228C64.6268 26.2426 64.1795 26.512 63.6487 26.7301C63.1172 26.9482 62.576 27.0572 62.0229 27.0572C60.7137 27.0572 59.7428 26.7341 59.1094 26.0863C58.4769 25.4393 58.1602 24.5911 58.1602 23.5441C58.1602 22.4385 58.5346 21.6015 59.2842 21.0339C60.0338 20.4671 61.0119 20.1824 62.2201 20.1824H64.0311C64.0015 19.7319 63.846 19.3751 63.5621 19.1138C63.2783 18.8516 62.9039 18.7209 62.4381 18.7209C61.9868 18.7209 61.4849 18.7866 60.9325 18.9181C60.3793 19.0488 59.8991 19.2092 59.4926 19.3984L58.6412 16.8673C59.0918 16.6052 59.7395 16.3799 60.583 16.1907C61.4264 16.0015 62.1399 15.9053 62.7219 15.9053ZM62.0229 24.4805C62.3572 24.4805 62.6995 24.4043 63.0491 24.2512C63.3978 24.0988 63.7329 23.8768 64.0528 23.5857V22.2541H62.2201C61.7976 22.2541 61.4697 22.3784 61.2372 22.6253C61.0039 22.873 60.8884 23.1632 60.8884 23.4984C60.8884 23.7597 60.9974 23.989 61.2155 24.1854C61.4336 24.3819 61.703 24.4805 62.0229 24.4805Z" fill="white"/>
<path d="M76.1877 15.8169C77.642 15.8169 78.6786 16.2354 79.2975 17.0724C79.9157 17.9086 80.2251 18.9452 80.2251 20.1815V26.794H77.0166V20.3129C77.0166 19.7309 76.8675 19.2843 76.5693 18.9709C76.2711 18.6582 75.8598 18.5019 75.3362 18.5019C74.9875 18.5019 74.5978 18.5933 74.1689 18.7752C73.7392 18.9572 73.3504 19.1641 73.0016 19.3966V26.7948H69.7939V16.2105H71.4527L72.3041 17.2792C72.7691 16.8728 73.3656 16.5264 74.0928 16.2426C74.8199 15.9588 75.5182 15.8169 76.1877 15.8169Z" fill="white"/>
<path d="M93.0771 11.3877V26.7943H91.4192L90.6559 25.7465C90.2342 26.1105 89.7131 26.4191 89.095 26.6741C88.4769 26.929 87.8331 27.0557 87.1644 27.0557C85.5642 27.0557 84.3496 26.521 83.5198 25.4523C82.6909 24.3828 82.2764 23.0559 82.2764 21.4701C82.2764 19.8691 82.7093 18.5278 83.5743 17.4439C84.4394 16.36 85.6949 15.818 87.3384 15.818C87.7016 15.818 88.1097 15.8765 88.5603 15.9928C89.0116 16.109 89.4405 16.2766 89.847 16.4946V11.6282L93.0771 11.3877ZM88.0151 24.3499C88.2917 24.3499 88.5971 24.2922 88.9322 24.1759C89.2666 24.0597 89.572 23.9138 89.8486 23.7398V19.2437C89.572 19.0257 89.2601 18.8477 88.9106 18.709C88.561 18.5703 88.2259 18.5013 87.9069 18.5013C87.0482 18.5013 86.4485 18.8212 86.1062 19.4618C85.7647 20.1024 85.5939 20.7566 85.5939 21.426C85.5939 22.1973 85.7679 22.8771 86.1166 23.4664C86.4654 24.0557 87.0987 24.3499 88.0151 24.3499Z" fill="white"/>
<path d="M99.2303 12.9587C99.2303 13.4534 99.0523 13.8711 98.6963 14.2134C98.3395 14.5549 97.913 14.7265 97.4192 14.7265C96.9245 14.7265 96.51 14.5557 96.1749 14.2134C95.8406 13.8711 95.6738 13.4534 95.6738 12.9587C95.6738 12.464 95.8406 12.0415 96.1749 11.6928C96.51 11.3424 96.9245 11.1685 97.4192 11.1685C97.913 11.1685 98.3387 11.3424 98.6963 11.6928C99.0523 12.0415 99.2303 12.464 99.2303 12.9587ZM99.0346 26.794H95.8269V16.2105H99.0346V26.794Z" fill="white"/>
<path d="M106.586 27.1644C105.276 27.1644 104.197 26.83 103.344 26.1606C102.493 25.4912 102.068 24.5091 102.068 23.2143V18.8497H100.562V16.362H102.068V13.7436L105.254 13.2192V16.3612H107.393L108.091 18.8489H105.254V22.7341C105.254 23.2423 105.386 23.6608 105.647 23.9879C105.909 24.3158 106.288 24.4794 106.781 24.4794C106.971 24.4794 107.174 24.4497 107.393 24.392C107.611 24.3335 107.83 24.2533 108.047 24.1515L108.986 26.4212C108.738 26.6248 108.375 26.7988 107.895 26.9447C107.415 27.0922 106.979 27.1644 106.586 27.1644Z" fill="white"/>
</svg>
