<svg width="110" height="18" viewBox="0 0 110 18" fill="none" xmlns="http://www.w3.org/2000/svg">
<path d="M6.83134 5.20987C6.75986 5.13999 6.68635 5.0722 6.61083 5.00652C5.72923 4.23913 4.50812 3.9939 3.39228 4.3269C3.33476 4.34414 3.28777 4.35429 3.2513 4.35734C3.04975 4.37412 2.87905 4.31637 2.73922 4.18409C2.30586 3.77396 2.65705 3.08038 3.23162 3.12112C3.44733 3.13634 3.63534 3.09846 3.81294 2.98025C3.84521 2.95882 3.89678 2.91545 3.96765 2.85014C4.51335 2.34755 5.15863 2.06731 5.90352 2.0094C6.80456 1.93937 7.70149 2.26333 8.3454 2.88733C8.44725 2.98597 8.53937 3.09743 8.62885 3.21335C9.11382 3.8417 9.31717 4.64285 9.19518 5.42386C9.07983 6.16218 8.67405 6.82818 8.08255 7.29152C7.06902 8.08545 5.64352 8.17082 4.52975 7.53171C4.52418 7.52843 4.50595 7.51611 4.47505 7.49475C4.38488 7.43227 4.27273 7.48537 4.25282 7.58366C4.23932 7.65026 4.27845 7.69318 4.33315 7.73334C4.44499 7.81535 4.51731 7.86673 4.55012 7.88748C5.28989 8.35429 6.09641 8.52102 6.96969 8.38767C6.97396 8.38706 6.97568 8.38889 6.97484 8.39316C6.97171 8.40941 6.9679 8.42593 6.96339 8.44271C6.82691 8.95552 6.57379 9.39933 6.20402 9.77414C6.17518 9.80336 6.14337 9.82903 6.10858 9.85115C5.25125 10.396 4.16047 10.5088 3.21262 10.1309C2.55776 9.86981 2.04983 9.43736 1.68883 8.83361C1.27207 8.13683 1.19494 7.29266 1.41523 6.52024C1.5379 6.08997 1.78633 5.68602 2.0945 5.36263C2.1389 5.3161 2.20615 5.26415 2.29624 5.20678C2.34255 5.17725 2.43845 5.12843 2.58393 5.0603C3.50923 4.62683 4.58811 4.64686 5.48721 5.13754C5.58883 5.19308 5.65661 5.22787 5.69056 5.24191C5.94162 5.34604 6.20226 5.37328 6.47248 5.32361C6.59046 5.30187 6.71382 5.25804 6.83065 5.21353C6.831 5.2134 6.83131 5.21318 6.83156 5.21289C6.8318 5.2126 6.83196 5.21226 6.83203 5.21189C6.8321 5.21152 6.83207 5.21114 6.83195 5.21079C6.83183 5.21043 6.83162 5.21011 6.83134 5.20987Z" fill="white"/>
<path d="M13.5728 9.56302C14.3498 7.70234 13.2125 5.70537 11.2907 5.25255C10.8101 5.13934 10.3195 5.13274 9.81884 5.23276C9.81426 5.23367 9.81217 5.23177 9.81255 5.22704C9.84245 4.79707 9.78596 4.37939 9.64307 3.97399C9.64177 3.97026 9.64303 3.96785 9.64685 3.96678C11.5183 3.45207 13.4955 3.97285 14.8366 5.375C15.5157 6.08494 15.7906 7.08737 15.5697 8.03522C15.4762 8.43619 15.2886 8.83476 15.0287 9.16204C14.5434 9.77296 13.9115 10.1546 13.1332 10.3071C13.1268 10.3083 13.1257 10.3063 13.1297 10.3012C13.3192 10.0626 13.4669 9.81652 13.5728 9.56302Z" fill="white"/>
<path d="M9.75459 5.62336C11.219 5.44839 12.6492 6.29462 13.1045 7.7208C13.379 8.58042 13.2345 9.52506 12.7222 10.2662C12.7198 10.2696 12.7166 10.2709 12.7126 10.2701C12.1847 10.1704 11.6622 10.1916 11.1451 10.3338C11.1392 10.3354 11.1382 10.3338 11.1421 10.3292C11.5329 9.86928 11.6983 9.27297 11.5908 8.67975C11.4569 7.94211 10.9025 7.33653 10.191 7.11247C9.80944 6.99224 9.42067 6.97851 9.02474 7.07128C9.01894 7.07257 9.01798 7.07101 9.02187 7.06658C9.38707 6.65089 9.62898 6.17191 9.74761 5.62965C9.74845 5.62591 9.75078 5.62381 9.75459 5.62336Z" fill="white"/>
<path d="M9.29361 12.8065C9.46412 12.2943 9.76759 11.8333 10.1754 11.4849C10.7699 10.9773 11.4651 10.7204 12.2612 10.7143C12.2912 10.7141 12.3226 10.7179 12.3554 10.7257C12.5589 10.7738 12.7503 10.7965 12.9295 10.7937C13.762 10.781 14.492 10.5053 15.1195 9.96651C15.472 9.66383 15.7719 9.25828 15.9529 8.8303C16.2573 8.11067 16.2887 7.37239 16.0471 6.61545C16.0463 6.61286 16.0468 6.61259 16.0486 6.61465C16.797 7.45573 17.2315 8.52499 17.2634 9.65754C17.2813 10.2926 17.1219 10.8667 16.7854 11.3799C16.0573 12.4902 14.6804 12.9841 13.4023 12.6773C13.3518 12.6652 13.2787 12.6436 13.1831 12.6125C13.0109 12.5566 12.855 12.5136 12.7153 12.4835C11.5378 12.2296 10.3989 12.3387 9.29842 12.811C9.29354 12.813 9.29193 12.8115 9.29361 12.8065Z" fill="white"/>
<path d="M2.53134 10.434C3.23087 10.822 4.05502 10.9511 4.83602 10.7961C4.98646 10.7662 5.14648 10.7244 5.31607 10.6708C5.97429 10.4624 6.53295 10.0752 6.95944 9.53112C6.96226 9.52746 6.96413 9.52788 6.96505 9.53238C7.27974 11.1492 6.1845 12.6416 4.61242 12.9883C4.56245 12.9993 4.51069 13.0056 4.45713 13.0073C3.39726 13.0393 2.32857 12.7397 1.44583 12.1378C1.04795 11.8664 0.679013 11.5051 0.426116 11.0943C0.0336873 10.4569 -0.087688 9.76155 0.0619904 9.00827C0.202667 8.29993 0.488253 7.65545 0.91875 7.07481C0.918994 7.07436 0.919397 7.07402 0.919881 7.07385C0.920366 7.07368 0.920896 7.07369 0.921369 7.07389C0.921841 7.07409 0.922222 7.07446 0.922436 7.07493C0.922651 7.0754 0.922683 7.07593 0.922527 7.07642C0.659331 8.44183 1.33025 9.76777 2.53134 10.434Z" fill="white"/>
<path d="M7.24442 11.2281C7.51162 10.5603 7.5527 9.83172 7.23091 9.1727C7.22954 9.16988 7.22924 9.16694 7.23 9.16389L7.45623 8.23916C7.45646 8.23797 7.45706 8.23692 7.45795 8.23618C7.51845 8.18087 7.59256 8.1235 7.68029 8.06408C7.9309 7.89433 8.16644 7.75209 8.38692 7.63735C8.45249 7.60337 8.54506 7.57922 8.61544 7.55805C8.9183 7.46712 9.22746 7.41936 9.54292 7.41478C9.83381 7.41066 10.1523 7.46078 10.3973 7.62763C10.4523 7.66509 10.5105 7.71425 10.5719 7.77513C10.9991 8.19831 11.1993 8.77036 11.04 9.36518C10.9534 9.68868 10.7797 9.98289 10.567 10.239C10.2696 10.5968 10.0425 10.8713 9.88576 11.0626C9.62966 11.3751 9.37012 11.7133 9.15293 12.0664C8.98071 12.3462 8.83549 12.6634 8.82382 12.9969C8.82367 13.0008 8.82188 13.0035 8.81844 13.0051C8.7224 13.0495 8.63207 13.0831 8.54747 13.1058C7.75811 13.3167 7.05411 13.0451 6.52337 12.4527C6.52093 12.45 6.52086 12.4473 6.52315 12.4445C6.8267 12.0765 7.06712 11.6711 7.24442 11.2281Z" fill="white"/>
<path d="M16.5417 12.4108C16.4456 13.333 15.9016 14.1412 15.1193 14.6198C14.3843 15.0697 13.5192 15.1843 12.6752 14.9923C11.6292 14.7542 10.6004 14.0283 10.3548 12.9241C10.3538 12.9202 10.3553 12.9177 10.3592 12.9166C10.6099 12.8493 10.864 12.8068 11.1215 12.789C11.2153 12.7825 11.3632 12.7736 11.5651 12.7624C11.8053 12.7491 12.0472 12.7865 12.2827 12.825C12.3019 12.8281 12.32 12.835 12.3371 12.8458C12.8717 13.1818 13.4974 13.3739 14.1313 13.3731C15.0629 13.372 15.8653 13.0507 16.5384 12.4092C16.541 12.4068 16.5421 12.4073 16.5417 12.4108Z" fill="white"/>
<path d="M6.20412 12.7197C6.80375 13.6168 7.95506 13.9021 8.92282 13.4387C9.0252 13.3896 9.11644 13.3432 9.19654 13.2995C9.28511 13.2512 9.35198 13.2173 9.39714 13.1978C9.56017 13.1273 9.72763 13.0698 9.89951 13.0254C9.9002 13.0253 9.90092 13.0252 9.90162 13.0254C9.90233 13.0255 9.903 13.0257 9.9036 13.0261C9.9042 13.0265 9.90471 13.027 9.90511 13.0275C9.90551 13.0281 9.90578 13.0288 9.90591 13.0295C10.003 13.5234 10.206 13.9684 10.5152 14.3643C10.517 14.3667 10.5181 14.3696 10.5182 14.3727C10.5183 14.3757 10.5175 14.3787 10.5158 14.3812C10.1624 14.9285 9.68723 15.3276 9.09035 15.5784C7.33449 16.3165 5.23144 15.3405 4.81559 13.4413C4.81521 13.4396 4.81551 13.4379 4.8164 13.4365C4.8173 13.435 4.81873 13.434 4.8204 13.4335C5.33679 13.3033 5.79666 13.0652 6.2 12.7191C6.2016 12.7178 6.20298 12.718 6.20412 12.7197Z" fill="white"/>
<path d="M8.4866 16.2503C8.48401 16.2454 8.48546 16.2425 8.49095 16.2417C9.4404 16.0977 10.4139 15.6314 10.8891 14.7504C10.8907 14.7473 10.8926 14.7473 10.8946 14.7502C11.2118 15.1978 11.4865 15.6538 11.7188 16.1182C11.8168 16.3142 12.2469 17.2338 11.7782 17.2783C11.4304 17.3114 11.0821 17.3394 10.7334 17.3621C10.7235 17.3628 10.717 17.3599 10.7084 17.3606C10.2029 17.401 9.69749 17.4415 9.19208 17.482C9.18819 17.4823 9.18506 17.4809 9.1827 17.4778C9.10419 17.371 9.03725 17.2673 8.98187 17.1668C8.81586 16.8653 8.65077 16.5598 8.4866 16.2503Z" fill="white"/>
<path d="M25.6317 15.3231C22.4927 15.3231 20.3231 13.1997 20.3231 10.153C20.3231 7.10637 22.4927 4.98294 25.6317 4.98294C27.7551 4.98294 29.9363 5.92925 30.4094 8.77973H28.2052C27.7898 7.53337 26.8319 6.97943 25.6317 6.97943C23.9122 6.97943 22.5966 8.28349 22.5966 10.153C22.5966 12.011 23.9122 13.3266 25.6317 13.3266C26.8319 13.3266 27.7898 12.7727 28.2052 11.5148H30.4094C29.9363 14.3768 27.7782 15.3231 25.6317 15.3231ZM36.4218 15.3231C33.2597 15.3231 31.1017 13.1997 31.1017 10.153C31.1017 7.10637 33.2597 4.98294 36.4218 4.98294C39.5954 4.98294 41.7535 7.10637 41.7535 10.153C41.7535 13.1997 39.5954 15.3231 36.4218 15.3231ZM36.4218 13.3266C38.1529 13.3266 39.4685 12.0572 39.4685 10.153C39.4685 8.24887 38.1529 6.97943 36.4218 6.97943C34.7023 6.97943 33.3751 8.24887 33.3751 10.153C33.3751 12.0572 34.7023 13.3266 36.4218 13.3266ZM42.5672 15V5.30607H45.2331L49.7338 11.8264H49.9531V5.30607H52.2035V15H49.5838L45.0253 8.47968H44.8176V15H42.5672ZM57.6381 5.30607C61.4003 5.30607 62.8313 7.39488 62.8313 10.153C62.8313 12.9112 61.4003 15 57.6381 15H53.1835V5.30607H57.6381ZM57.6265 13.0612C59.5076 13.0612 60.5232 12.0226 60.5232 10.153C60.5232 8.28349 59.5076 7.24486 57.6265 7.24486H55.5031L55.48 13.0612H57.6265ZM70.8215 15L70.2214 13.3728H65.4437L64.8436 15H62.4663L66.2169 5.30607H69.4482L73.2104 15H70.8215ZM66.09 11.6302H69.5752L68.0518 7.4872H67.6133L66.09 11.6302ZM73.848 15V5.30607H76.7908L79.1912 12.1034H79.3643L81.7647 5.30607H84.7075V15H82.5033V9.16056H82.3071L80.1721 15H78.3834L76.2484 9.16056H76.0522V15H73.848ZM85.6949 15V5.30607H87.9915V15H85.6949ZM88.9812 15V5.30607H91.6471L96.1478 11.8264H96.3671V5.30607H98.6175V15H95.9978L91.4393 8.47968H91.2316V15H88.9812ZM104.052 5.30607C107.814 5.30607 109.245 7.39488 109.245 10.153C109.245 12.9112 107.814 15 104.052 15H99.5975V5.30607H104.052ZM104.041 13.0612C105.922 13.0612 106.937 12.0226 106.937 10.153C106.937 8.28349 105.922 7.24486 104.041 7.24486H101.917L101.894 13.0612H104.041Z" fill="white"/>
</svg>
