<svg width="108" height="19" viewBox="0 0 108 19" fill="none" xmlns="http://www.w3.org/2000/svg">
<g clip-path="url(#clip0_2007_347)">
<path fill-rule="evenodd" clip-rule="evenodd" d="M18.3725 4.41337C18.2274 4.13804 18.0096 3.90778 17.7427 3.74767C17.4759 3.58755 17.1702 3.5037 16.859 3.50525C16.5876 3.50547 16.3202 3.57161 16.08 3.69798C15.7508 3.87205 15.4878 4.14928 15.3312 4.48718C15.1747 4.82508 15.1332 5.20499 15.2133 5.56869L11.603 7.62103C11.3262 7.30872 10.973 7.07367 10.5781 6.93889C10.1831 6.80411 9.75988 6.77422 9.34989 6.85216L7.74354 3.0623C8.06655 2.82004 8.2928 2.47075 8.3818 2.07693C8.4708 1.6831 8.41674 1.27046 8.2293 0.91285C8.04187 0.555241 7.73328 0.276008 7.35878 0.125128C6.98427 -0.0257522 6.5683 -0.0384308 6.1853 0.0893612C5.8023 0.217153 5.47729 0.477074 5.26842 0.822605C5.05955 1.16813 4.98046 1.57672 5.04531 1.97523C5.11016 2.37374 5.31472 2.73617 5.62237 2.99764C5.93002 3.25912 6.32068 3.40257 6.72444 3.40233H6.77085L8.40344 7.25475C7.9783 7.55405 7.66007 7.98152 7.49533 8.47465L3.35836 8.04986C3.27469 7.65447 3.05234 7.30205 2.7315 7.05629C2.41067 6.81053 2.0125 6.68764 1.60896 6.70983C1.20543 6.73202 0.823135 6.89782 0.531177 7.17727C0.239218 7.45673 0.0568503 7.8314 0.0170305 8.23358C-0.0227894 8.63576 0.0825652 9.03892 0.314055 9.3702C0.545545 9.70148 0.8879 9.93903 1.27925 10.0399C1.6706 10.1408 2.08513 10.0984 2.44794 9.92032C2.81074 9.74224 3.09788 9.44027 3.25746 9.06896L7.38332 9.50385C7.44996 10.1018 7.7379 10.6532 8.19054 11.0497L6.16645 14.672C5.76981 14.587 5.35583 14.6466 4.99927 14.84C4.64271 15.0335 4.36706 15.348 4.22211 15.7269C4.07716 16.1058 4.07244 16.524 4.20882 16.906C4.34521 17.2881 4.61369 17.6088 4.9658 17.8102C5.31791 18.0116 5.73044 18.0805 6.1289 18.0045C6.52736 17.9284 6.88549 17.7123 7.13862 17.3954C7.39175 17.0784 7.5232 16.6813 7.50923 16.2759C7.49526 15.8705 7.3368 15.4834 7.06246 15.1846L9.0936 11.5521C9.32238 11.6227 9.56049 11.6585 9.79992 11.6581C10.1296 11.6577 10.4557 11.5901 10.7583 11.4593C11.0609 11.3284 11.3335 11.1372 11.5596 10.8973L13.9238 12.3099C13.8283 12.7037 13.877 13.1186 14.061 13.4796C14.245 13.8406 14.5521 14.1238 14.9268 14.2779C15.3015 14.4321 15.719 14.4471 16.1037 14.3201C16.4885 14.1931 16.8151 13.9326 17.0244 13.5857C17.2338 13.2389 17.312 12.8285 17.245 12.4289C17.178 12.0293 16.9702 11.6669 16.6592 11.4073C16.3481 11.1476 15.9544 11.0079 15.5493 11.0134C15.1442 11.0189 14.7544 11.1692 14.4505 11.4371L12.0904 10.0144C12.2568 9.5292 12.2638 9.00352 12.1106 8.514L15.7259 6.45763C15.9843 6.69521 16.3101 6.84684 16.6583 6.89166C17.0065 6.93647 17.36 6.87226 17.6702 6.70787C18.0678 6.49715 18.3655 6.13726 18.4979 5.70725C18.6303 5.27723 18.5867 4.81224 18.3765 4.41438L18.3725 4.41337Z" fill="white"/>
<path d="M21.5977 14.498V3.37061H28.804V5.05869H23.5915V8.32992H28.3268V9.99479H23.5915V14.498H21.5977Z" fill="white"/>
<path d="M32.6718 14.6181C32.1505 14.6296 31.6353 14.5032 31.1785 14.2518C30.7461 14.0034 30.3977 13.6317 30.1775 13.1843C29.9387 12.7134 29.8193 12.1433 29.8193 11.474V6.25537H31.7466V11.1773C31.7466 11.7444 31.8908 12.185 32.1794 12.4992C32.468 12.8133 32.8662 12.97 33.3741 12.9694C33.6929 12.9753 34.008 12.8996 34.2893 12.7494C34.5587 12.5989 34.777 12.3712 34.9159 12.0956C35.0762 11.771 35.1545 11.4121 35.1439 11.0502V6.25537H37.0782V14.5H35.2266L35.2135 12.4447H35.4073C35.1732 13.1671 34.8271 13.7096 34.369 14.0722C33.9109 14.4348 33.3452 14.6167 32.6718 14.6181Z" fill="white"/>
<path d="M41.5985 14.6709C41.0185 14.6804 40.4416 14.5854 39.8953 14.3904C39.4269 14.2236 39.0083 13.941 38.6784 13.569C38.3588 13.195 38.1517 12.7381 38.0811 12.2513L39.9104 11.9819C39.9788 12.3489 40.1845 12.6761 40.4855 12.897C40.7741 13.0988 41.1525 13.1997 41.6207 13.1997C42.0889 13.1997 42.4635 13.1049 42.7447 12.9152C43.0212 12.7262 43.1594 12.4907 43.1594 12.2089C43.1612 12.0967 43.1373 11.9855 43.0893 11.8841C43.0414 11.7826 42.9708 11.6935 42.883 11.6237C42.6367 11.4432 42.3516 11.3229 42.0505 11.2725L40.646 10.9698C39.865 10.8003 39.2801 10.5215 38.8913 10.1333C38.5025 9.7452 38.3084 9.24742 38.3091 8.63999C38.299 8.16417 38.4458 7.69824 38.7268 7.31415C39.028 6.92173 39.4311 6.61949 39.8922 6.44034C40.446 6.22333 41.0372 6.11805 41.6318 6.13057C42.1912 6.11756 42.7479 6.21245 43.2714 6.41007C43.7003 6.57648 44.0816 6.84611 44.3813 7.19508C44.6654 7.53794 44.8568 7.94786 44.9373 8.38572L43.1978 8.64706C43.1216 8.34576 42.9482 8.078 42.7044 7.88525C42.4501 7.67672 42.1016 7.57212 41.659 7.57145C41.2981 7.55667 40.9413 7.65204 40.6359 7.84489C40.3668 8.02651 40.2323 8.25657 40.2323 8.53506C40.2293 8.64919 40.2527 8.76247 40.3006 8.86608C40.3486 8.96969 40.4198 9.06083 40.5087 9.13239C40.6937 9.28711 40.9874 9.4092 41.3896 9.49867L42.8093 9.80137C43.5957 9.97089 44.1792 10.24 44.5599 10.6086C44.7495 10.7933 44.8984 11.0157 44.9969 11.2614C45.0954 11.5072 45.1415 11.7708 45.1321 12.0353C45.1418 12.5347 44.9821 13.0227 44.679 13.4197C44.3523 13.8321 43.9219 14.1504 43.4319 14.3419C42.8487 14.5724 42.2254 14.6842 41.5985 14.6709Z" fill="white"/>
<path d="M47.1038 5.07414C46.9565 5.07724 46.81 5.0511 46.6728 4.99724C46.5356 4.94338 46.4105 4.86286 46.3047 4.76033C46.2002 4.66475 46.117 4.54823 46.0605 4.41837C46.004 4.28851 45.9754 4.14821 45.9767 4.0066C45.9741 3.86465 46.0021 3.72379 46.0586 3.59358C46.1152 3.46336 46.1991 3.34682 46.3047 3.25186C46.5212 3.05025 46.8081 2.94157 47.1038 2.94915C47.402 2.94106 47.6916 3.04967 47.911 3.25186C48.0174 3.34632 48.1022 3.46267 48.1595 3.59294C48.2168 3.7232 48.2453 3.86431 48.243 4.0066C48.2443 4.14859 48.2153 4.28924 48.1581 4.41919C48.1009 4.54915 48.0166 4.66544 47.911 4.76033C47.8037 4.86315 47.6772 4.94378 47.5387 4.99763C47.4001 5.05148 47.2524 5.07748 47.1038 5.07414ZM46.1402 14.4983V6.2557H48.0674V14.5004L46.1402 14.4983Z" fill="white"/>
<path d="M53.0408 14.6715C52.3067 14.6888 51.5821 14.5038 50.9461 14.1367C50.3517 13.7821 49.8721 13.2636 49.5647 12.6434C49.2385 12.0037 49.0754 11.2584 49.0754 10.4074C49.0585 9.63219 49.2263 8.86405 49.5647 8.1664C49.8717 7.54486 50.3513 7.02497 50.9461 6.66902C51.5414 6.31251 52.2396 6.13458 53.0408 6.13526C53.842 6.13593 54.5429 6.31385 55.1436 6.66902C55.7382 7.02529 56.2177 7.54509 56.5249 8.1664C56.8634 8.86405 57.0311 9.63219 57.0143 10.4074C57.0143 11.2577 56.8512 12.003 56.5249 12.6434C56.2173 13.2634 55.7378 13.7818 55.1436 14.1367C54.5483 14.4926 53.8473 14.6709 53.0408 14.6715ZM53.0408 13.0954C53.4407 13.1086 53.8328 12.9831 54.1507 12.7403C54.4607 12.488 54.6947 12.1548 54.8268 11.7777C54.9841 11.3382 55.0613 10.8741 55.0548 10.4074C55.0623 9.93571 54.9851 9.46647 54.8268 9.02205C54.6955 8.64504 54.4613 8.3123 54.1507 8.06147C53.8256 7.83316 53.438 7.71066 53.0408 7.71066C52.6436 7.71066 52.256 7.83316 51.9309 8.06147C51.6206 8.31171 51.3876 8.64478 51.2589 9.02205C51.1029 9.46698 51.0271 9.93603 51.0349 10.4074C51.0281 10.8738 51.1039 11.3377 51.2589 11.7777C51.3884 12.1551 51.6212 12.4886 51.9309 12.7403C52.2483 12.9841 52.6408 13.1097 53.0408 13.0954Z" fill="white"/>
<path d="M59.9653 9.70439V14.4982H58.0391V6.25558H59.8835L59.9057 8.30186H59.7039C59.938 7.58411 60.2841 7.04328 60.7422 6.67936C61.2003 6.31544 61.7694 6.13382 62.4495 6.13449C62.9708 6.12312 63.4859 6.24946 63.9428 6.50077C64.3732 6.74864 64.7192 7.12025 64.9357 7.5673C65.1718 8.03817 65.2898 8.60826 65.2898 9.27758V14.4972H63.3657V9.57725C63.3657 9.00952 63.2224 8.56891 62.9358 8.25544C62.6493 7.94198 62.2497 7.78524 61.7371 7.78524C61.4206 7.77986 61.108 7.85558 60.829 8.00521C60.5605 8.15466 60.3414 8.37905 60.1984 8.65098C60.0336 8.97705 59.9535 9.33927 59.9653 9.70439Z" fill="white"/>
<path d="M66.2988 14.498L70.1977 3.37061H72.7202L76.6846 14.498H74.5062L72.5345 8.70325C72.3408 8.09784 72.139 7.42517 71.9291 6.68522C71.7193 5.94528 71.4838 5.09535 71.2228 4.13544H71.6708C71.4166 5.10073 71.1875 5.9557 70.9837 6.70036C70.7799 7.44501 70.5858 8.11096 70.4015 8.69821L68.4672 14.493L66.2988 14.498ZM68.5772 11.7646V10.1502H74.4022V11.7646H68.5772Z" fill="white"/>
<path d="M80.2306 14.6554C79.6028 14.6656 78.9864 14.4874 78.4608 14.1439C77.9237 13.781 77.5004 13.2733 77.2399 12.6798C76.9432 12.0448 76.7949 11.282 76.7949 10.3913C76.7949 9.48524 76.9456 8.71603 77.247 8.08372C77.5108 7.4942 77.9367 6.99173 78.4749 6.63477C78.9954 6.2988 79.6031 6.12335 80.2225 6.13026C80.6217 6.11797 81.0185 6.1952 81.3839 6.35628C81.6731 6.48966 81.9334 6.67856 82.1498 6.91225C82.3326 7.11117 82.4883 7.3334 82.6129 7.57315H82.6795V3.37061H84.6067V14.498H82.7168V13.1994H82.6159C82.49 13.4454 82.3303 13.6725 82.1417 13.8745C81.9248 14.1066 81.6651 14.2947 81.3769 14.4284C81.0165 14.5888 80.6249 14.6664 80.2306 14.6554ZM80.7351 13.0572C81.1224 13.0684 81.5023 12.9502 81.8148 12.7211C82.1244 12.4784 82.3597 12.1536 82.4938 11.7838C82.6587 11.3356 82.7385 10.8607 82.7289 10.3833C82.7402 9.90535 82.6628 9.42949 82.5009 8.97972C82.3688 8.61158 82.1325 8.28977 81.8208 8.05344C81.5053 7.82908 81.1252 7.71361 80.7381 7.72451C80.3521 7.71273 79.9733 7.83107 79.6625 8.06051C79.3561 8.30262 79.1245 8.62657 78.9946 8.99486C78.8344 9.43983 78.7571 9.91041 78.7665 10.3833C78.758 10.8564 78.8353 11.3271 78.9946 11.7727C79.1236 12.1453 79.3569 12.4731 79.6666 12.7171C79.9752 12.948 80.3528 13.0679 80.7381 13.0572H80.7351Z" fill="white"/>
<path d="M89.1414 14.6712C88.5615 14.6807 87.9845 14.5856 87.4382 14.3907C86.9698 14.2239 86.5512 13.9413 86.2214 13.5693C85.9018 13.1953 85.6947 12.7384 85.624 12.2515L87.4534 11.9821C87.5218 12.3492 87.7275 12.6764 88.0285 12.8973C88.3171 13.0991 88.6955 13.2 89.1636 13.2C89.6318 13.2 90.0065 13.1052 90.2877 12.9155C90.5642 12.7265 90.7024 12.491 90.7024 12.2092C90.7045 12.0958 90.6803 11.9834 90.6316 11.881C90.5829 11.7786 90.5111 11.6889 90.4219 11.6189C90.1757 11.4384 89.8906 11.3181 89.5895 11.2678L88.1849 10.965C87.4039 10.7955 86.819 10.5167 86.4302 10.1286C86.0414 9.74044 85.8473 9.24266 85.848 8.63523C85.8414 8.16192 85.9899 7.69945 86.2708 7.31847C86.572 6.92605 86.9751 6.62381 87.4362 6.44466C87.9899 6.22765 88.5811 6.12237 89.1758 6.13489C89.7338 6.12232 90.2891 6.21721 90.8114 6.41439C91.2403 6.5808 91.6215 6.85043 91.9213 7.1994C92.2053 7.54226 92.3967 7.95218 92.4773 8.39004L90.7377 8.65138C90.6615 8.35008 90.4881 8.08232 90.2443 7.88957C89.99 7.68104 89.6416 7.57644 89.199 7.57577C88.8381 7.56099 88.4812 7.65636 88.1758 7.84921C87.9074 8.03083 87.7722 8.26089 87.7722 8.53938C87.7694 8.65347 87.7929 8.76668 87.8409 8.87025C87.8888 8.97382 87.9599 9.06499 88.0487 9.13671C88.2337 9.29143 88.5276 9.41352 88.9306 9.50299L90.3492 9.80569C91.1349 9.97521 91.7185 10.2443 92.0999 10.6129C92.2895 10.7977 92.4383 11.0201 92.5368 11.2658C92.6354 11.5115 92.6814 11.7751 92.672 12.0397C92.6822 12.5371 92.5244 13.0234 92.224 13.42C91.8973 13.8324 91.4669 14.1507 90.9768 14.3422C90.393 14.5729 89.769 14.6847 89.1414 14.6712Z" fill="white"/>
<path d="M94.8761 14.6309C94.719 14.6343 94.5627 14.6056 94.417 14.5466C94.2713 14.4877 94.1391 14.3996 94.0286 14.2879C93.8064 14.0645 93.6816 13.7624 93.6816 13.4473C93.6816 13.1323 93.8064 12.8301 94.0286 12.6068C94.2545 12.3874 94.5571 12.2646 94.8721 12.2646C95.1871 12.2646 95.4897 12.3874 95.7156 12.6068C95.8826 12.7723 95.9964 12.9838 96.0427 13.2142C96.089 13.4447 96.0657 13.6837 95.9756 13.9008C95.8856 14.1179 95.7329 14.3033 95.5371 14.4333C95.3413 14.5634 95.1112 14.6322 94.8761 14.6309Z" fill="white"/>
<path d="M99.8638 14.6633C99.3748 14.671 98.8898 14.5744 98.4411 14.3798C98.0349 14.2033 97.6886 13.9127 97.4442 13.5433C97.1889 13.1345 97.0613 12.6588 97.0779 12.1771C97.0622 11.7748 97.1523 11.3754 97.3393 11.0188C97.5101 10.7187 97.7559 10.468 98.0526 10.2913C98.3698 10.103 98.7133 9.96322 99.0717 9.87658C99.4571 9.78083 99.849 9.71338 100.244 9.67477C100.733 9.62029 101.125 9.57387 101.425 9.5325C101.654 9.51508 101.876 9.44903 102.078 9.33877C102.144 9.29417 102.198 9.23269 102.234 9.16058C102.269 9.08846 102.285 9.00827 102.279 8.9281V8.87967C102.286 8.64313 102.228 8.40925 102.111 8.20363C101.995 8.01389 101.825 7.86394 101.622 7.77379C101.369 7.667 101.096 7.61606 100.822 7.62446C100.541 7.61855 100.261 7.66827 99.998 7.77076C99.7796 7.85494 99.583 7.98739 99.4229 8.15822C99.281 8.31115 99.1752 8.49387 99.1131 8.693L97.313 8.40846C97.4329 7.93598 97.6751 7.50341 98.0153 7.15426C98.3576 6.81095 98.7738 6.55038 99.2322 6.39245C99.7475 6.21525 100.29 6.12821 100.834 6.13515C101.248 6.13449 101.661 6.18464 102.062 6.28448C102.451 6.37882 102.819 6.54182 103.149 6.76578C103.474 6.98953 103.74 7.28955 103.922 7.63959C104.125 8.05127 104.224 8.50659 104.21 8.96544V14.4989H102.35V13.3567H102.283C102.155 13.6012 101.984 13.8212 101.779 14.0065C101.547 14.2159 101.277 14.3783 100.984 14.4847C100.624 14.6107 100.245 14.6711 99.8638 14.6633ZM100.356 13.2295C100.715 13.2386 101.071 13.1578 101.39 12.9944C101.667 12.8519 101.9 12.6362 102.062 12.3709C102.219 12.1145 102.3 11.8195 102.298 11.5193V10.5637C102.203 10.6273 102.098 10.674 101.988 10.702C101.828 10.7485 101.666 10.7859 101.502 10.814C101.321 10.8462 101.139 10.8762 100.958 10.9038C100.776 10.9313 100.616 10.9525 100.476 10.9673C100.211 11.0027 99.9518 11.0705 99.7034 11.1691C99.4924 11.2464 99.3038 11.3746 99.1545 11.5425C99.0138 11.7158 98.942 11.935 98.9527 12.158C98.9456 12.369 99.0083 12.5765 99.1313 12.7482C99.2585 12.9128 99.4295 13.0384 99.6247 13.1105C99.859 13.1953 100.107 13.2357 100.356 13.2295Z" fill="white"/>
<path d="M106.181 5.07414C106.034 5.07724 105.887 5.0511 105.75 4.99724C105.613 4.94338 105.488 4.86286 105.382 4.76033C105.277 4.66484 105.194 4.54837 105.137 4.4185C105.08 4.28863 105.052 4.14829 105.053 4.0066C105.05 3.86458 105.079 3.7237 105.135 3.59349C105.192 3.46328 105.276 3.34677 105.382 3.25186C105.598 3.05025 105.885 2.94157 106.181 2.94915C106.479 2.94106 106.769 3.04967 106.988 3.25186C107.095 3.34632 107.179 3.46267 107.237 3.59294C107.294 3.7232 107.322 3.86431 107.32 4.0066C107.321 4.14859 107.293 4.28924 107.235 4.41919C107.178 4.54915 107.094 4.66544 106.988 4.76033C106.881 4.86315 106.754 4.94378 106.616 4.99763C106.477 5.05148 106.33 5.07748 106.181 5.07414ZM105.217 14.4983V6.2557H107.145V14.5004L105.217 14.4983Z" fill="white"/>
</g>
<defs>
<clipPath id="clip0_2007_347">
<rect width="107.317" height="18.0351" fill="white"/>
</clipPath>
</defs>
</svg>
