<svg width="102" height="32" viewBox="0 0 102 32" fill="none" xmlns="http://www.w3.org/2000/svg">
<g clip-path="url(#clip0_2006_289)">
<path d="M29.9388 29.7498C28.9314 29.7498 28.1709 28.9292 28.1709 27.9619V27.9486C28.1709 26.9745 28.9314 26.1473 29.9388 26.1473C30.5125 26.1473 30.8995 26.3675 31.2064 26.6477C31.2464 26.681 31.2864 26.7477 31.2864 26.8278C31.2864 26.9678 31.173 27.0747 31.0395 27.0747C30.9729 27.0747 30.9127 27.0479 30.8727 27.0146C30.6259 26.7878 30.3457 26.601 29.9321 26.601C29.2316 26.601 28.6979 27.1947 28.6979 27.9352V27.9486C28.6979 28.6957 29.245 29.2895 29.9655 29.2895C30.3591 29.2895 30.6727 29.1094 30.9261 28.8692C30.9595 28.8359 31.0062 28.8026 31.0729 28.8026C31.1997 28.8026 31.3064 28.916 31.3064 29.0359C31.3064 29.096 31.2797 29.156 31.2397 29.1961C30.9127 29.523 30.5192 29.7498 29.9388 29.7498ZM33.739 29.7498C32.705 29.7498 31.9512 28.9359 31.9512 27.9619V27.9486C31.9512 26.9745 32.7117 26.1473 33.7524 26.1473C34.7865 26.1473 35.547 26.9611 35.547 27.9352V27.9486C35.547 28.9225 34.7798 29.7498 33.739 29.7498ZM33.7524 29.2895C34.4995 29.2895 35.02 28.689 35.02 27.9619V27.9486C35.02 27.208 34.4662 26.601 33.739 26.601C32.9918 26.601 32.4782 27.208 32.4782 27.9352V27.9486C32.4782 28.689 33.0253 29.2895 33.7524 29.2895ZM36.5443 29.443V26.4475C36.5443 26.3074 36.6577 26.1874 36.7977 26.1874C36.9445 26.1874 37.0579 26.3008 37.0579 26.4475V26.8211C37.2847 26.4475 37.645 26.1473 38.2388 26.1473C39.0727 26.1473 39.5597 26.7077 39.5597 27.5283V29.443C39.5597 29.5897 39.4463 29.7031 39.3062 29.7031C39.1595 29.7031 39.0461 29.5897 39.0461 29.443V27.655C39.0461 27.0146 38.6991 26.6144 38.0919 26.6144C37.4983 26.6144 37.0579 27.0479 37.0579 27.695V29.443C37.0579 29.5897 36.9512 29.7031 36.8044 29.7031C36.6577 29.7031 36.5443 29.5897 36.5443 29.443ZM41.8627 29.7365C41.4091 29.7365 40.9087 29.5698 40.5351 29.3029C40.4885 29.2694 40.4417 29.2028 40.4417 29.116C40.4417 28.996 40.5418 28.8959 40.6686 28.8959C40.7153 28.8959 40.7619 28.9093 40.7953 28.9359C41.1488 29.1761 41.5158 29.3029 41.8894 29.3029C42.303 29.3029 42.6033 29.0894 42.6033 28.7558V28.7424C42.6033 28.3955 42.1963 28.2622 41.7426 28.1354C41.2022 27.9819 40.6019 27.7952 40.6019 27.1613V27.148C40.6019 26.5542 41.0955 26.1606 41.776 26.1606C42.143 26.1606 42.5432 26.274 42.8767 26.4542C42.9435 26.4943 43.0035 26.5676 43.0035 26.6677C43.0035 26.7877 42.9035 26.8878 42.7767 26.8878C42.73 26.8878 42.6899 26.8745 42.6633 26.8611C42.3698 26.6943 42.0562 26.5943 41.7626 26.5943C41.3557 26.5943 41.0955 26.8077 41.0955 27.0946V27.108C41.0955 27.4349 41.5225 27.5616 41.9828 27.7017C42.5165 27.8618 43.0903 28.0687 43.0903 28.689V28.7024C43.0903 29.3562 42.5499 29.7365 41.8627 29.7365ZM45.2002 29.7298C44.6466 29.7298 44.2263 29.4563 44.2263 28.7558V26.6743H43.946C43.8259 26.6743 43.7192 26.5676 43.7192 26.4475C43.7192 26.3207 43.8259 26.2207 43.946 26.2207H44.2263V25.4068C44.2263 25.2667 44.333 25.1466 44.4797 25.1466C44.6198 25.1466 44.7399 25.2667 44.7399 25.4068V26.2207H45.6339C45.7607 26.2207 45.8674 26.3274 45.8674 26.4475C45.8674 26.5743 45.7607 26.6743 45.6339 26.6743H44.7399V28.689C44.7399 29.1094 44.9734 29.2629 45.3203 29.2629C45.5005 29.2629 45.5938 29.2161 45.6339 29.2161C45.754 29.2161 45.854 29.3162 45.854 29.4363C45.854 29.5297 45.794 29.6031 45.7073 29.6364C45.5605 29.6964 45.4004 29.7298 45.2002 29.7298ZM46.8101 29.443V26.4475C46.8101 26.3074 46.9235 26.1874 47.0635 26.1874C47.2103 26.1874 47.3237 26.3008 47.3237 26.4475V27.0946C47.5773 26.5209 48.0776 26.174 48.5113 26.174C48.6647 26.174 48.7647 26.2874 48.7647 26.4341C48.7647 26.5743 48.6713 26.6743 48.5379 26.6943C47.8708 26.7744 47.3237 27.2747 47.3237 28.2687V29.443C47.3237 29.583 47.217 29.7031 47.0702 29.7031C46.9235 29.7031 46.8101 29.5897 46.8101 29.443ZM52.5359 26.4475V29.443C52.5359 29.583 52.4292 29.7031 52.2823 29.7031C52.1423 29.7031 52.0288 29.5897 52.0288 29.443V29.0694C51.7953 29.443 51.4417 29.7431 50.848 29.7431C50.014 29.7431 49.5271 29.1828 49.5271 28.3622V26.4475C49.5271 26.3008 49.6338 26.1874 49.7807 26.1874C49.9207 26.1874 50.0408 26.3008 50.0408 26.4475V28.2354C50.0408 28.8759 50.3877 29.2761 50.9948 29.2761C51.5819 29.2761 52.0288 28.8425 52.0288 28.1954V26.4475C52.0288 26.3008 52.1356 26.1874 52.2823 26.1874C52.4225 26.1874 52.5359 26.3008 52.5359 26.4475ZM55.3125 29.7498C54.3051 29.7498 53.5446 28.9292 53.5446 27.9619V27.9486C53.5446 26.9745 54.3051 26.1473 55.3125 26.1473C55.8863 26.1473 56.2732 26.3675 56.5801 26.6477C56.6201 26.681 56.6602 26.7477 56.6602 26.8278C56.6602 26.9678 56.5468 27.0747 56.4133 27.0747C56.3466 27.0747 56.2866 27.0479 56.2466 27.0146C55.9997 26.7878 55.7196 26.601 55.3058 26.601C54.6055 26.601 54.0716 27.1947 54.0716 27.9352V27.9486C54.0716 28.6957 54.6187 29.2895 55.3392 29.2895C55.7328 29.2895 56.0464 29.1094 56.2999 28.8692C56.3333 28.8359 56.3799 28.8026 56.4467 28.8026C56.5734 28.8026 56.6802 28.916 56.6802 29.0359C56.6802 29.096 56.6535 29.156 56.6134 29.1961C56.2866 29.523 55.893 29.7498 55.3125 29.7498ZM59.0928 29.7498C58.0854 29.7498 57.3249 28.9292 57.3249 27.9619V27.9486C57.3249 26.9745 58.0854 26.1473 59.0928 26.1473C59.6665 26.1473 60.0535 26.3675 60.3604 26.6477C60.4004 26.681 60.4404 26.7477 60.4404 26.8278C60.4404 26.9678 60.327 27.0747 60.1935 27.0747C60.1269 27.0747 60.0669 27.0479 60.0268 27.0146C59.78 26.7878 59.4997 26.601 59.0861 26.601C58.3856 26.601 57.8519 27.1947 57.8519 27.9352V27.9486C57.8519 28.6957 58.399 29.2895 59.1195 29.2895C59.5131 29.2895 59.8267 29.1094 60.0801 28.8692C60.1135 28.8359 60.1602 28.8026 60.2269 28.8026C60.3537 28.8026 60.4604 28.916 60.4604 29.0359C60.4604 29.096 60.4337 29.156 60.3937 29.1961C60.0669 29.523 59.6732 29.7498 59.0928 29.7498ZM61.4163 25.2267V25.1399C61.4163 24.9731 61.5498 24.8664 61.7166 24.8664C61.89 24.8664 62.0235 24.9731 62.0235 25.1399V25.2267C62.0235 25.3867 61.89 25.5002 61.7166 25.5002C61.5498 25.5002 61.4163 25.3867 61.4163 25.2267ZM61.4631 29.443V26.4475C61.4631 26.3074 61.5765 26.1874 61.7166 26.1874C61.8634 26.1874 61.9768 26.3008 61.9768 26.4475V29.443C61.9768 29.5897 61.8701 29.7031 61.7232 29.7031C61.5765 29.7031 61.4631 29.5897 61.4631 29.443ZM64.8033 25.7271C64.7299 25.7271 64.6767 25.687 64.6767 25.6336C64.6767 25.6003 64.6899 25.5602 64.71 25.5336L65.1102 24.9264C65.177 24.8264 65.2504 24.7729 65.3504 24.7729C65.5105 24.7729 65.7107 24.8798 65.7107 24.9731C65.7107 25.0265 65.6707 25.0733 65.6173 25.1266L65.1169 25.6003C65.0102 25.707 64.9301 25.7271 64.8033 25.7271ZM64.81 29.7498C63.776 29.7498 63.0222 28.9359 63.0222 27.9619V27.9486C63.0222 26.9745 63.7827 26.1473 64.8234 26.1473C65.8575 26.1473 66.618 26.9611 66.618 27.9352V27.9486C66.618 28.9225 65.8508 29.7498 64.81 29.7498ZM64.8234 29.2895C65.5705 29.2895 66.091 28.689 66.091 27.9619V27.9486C66.091 27.208 65.5372 26.601 64.81 26.601C64.0629 26.601 63.5492 27.208 63.5492 27.9352V27.9486C63.5492 28.689 64.0962 29.2895 64.8234 29.2895ZM67.6153 29.443V26.4475C67.6153 26.3074 67.7287 26.1874 67.8687 26.1874C68.0155 26.1874 68.1289 26.3008 68.1289 26.4475V26.8211C68.3558 26.4475 68.716 26.1473 69.3098 26.1473C70.1437 26.1473 70.6306 26.7077 70.6306 27.5283V29.443C70.6306 29.5897 70.5172 29.7031 70.3772 29.7031C70.2304 29.7031 70.117 29.5897 70.117 29.443V27.655C70.117 27.0146 69.7701 26.6144 69.163 26.6144C68.5692 26.6144 68.1289 27.0479 68.1289 27.695V29.443C68.1289 29.5897 68.0222 29.7031 67.8754 29.7031C67.7287 29.7031 67.6153 29.5897 67.6153 29.443Z" fill="white"/>
<path d="M75.1213 28.716V27.5619H73.9539C73.8204 27.5619 73.707 27.4552 73.707 27.3217C73.707 27.1883 73.8204 27.0815 73.9539 27.0815H75.1213V25.9273C75.1213 25.7873 75.2347 25.6806 75.3749 25.6806C75.5083 25.6806 75.6217 25.7873 75.6217 25.9273V27.0815H76.7959C76.9293 27.0815 77.036 27.1883 77.036 27.3217C77.036 27.4552 76.9293 27.5619 76.7959 27.5619H75.6217V28.716C75.6217 28.8561 75.5083 28.9628 75.3749 28.9628C75.2347 28.9628 75.1213 28.8561 75.1213 28.716ZM81.3045 29.7367C80.8507 29.7367 80.3503 29.57 79.9768 29.3031C79.9301 29.2697 79.8835 29.203 79.8835 29.1162C79.8835 28.9962 79.9835 28.8961 80.1103 28.8961C80.157 28.8961 80.2036 28.9095 80.2369 28.9361C80.5905 29.1763 80.9575 29.3031 81.3311 29.3031C81.7447 29.3031 82.0449 29.0896 82.0449 28.756V28.7427C82.0449 28.3958 81.638 28.2624 81.1844 28.1356C80.644 27.9822 80.0435 27.7954 80.0435 27.1615V27.1483C80.0435 26.5545 80.5373 26.1608 81.2177 26.1608C81.5846 26.1608 81.9849 26.2742 82.3184 26.4544C82.3852 26.4945 82.4452 26.5679 82.4452 26.6679C82.4452 26.788 82.3452 26.888 82.2184 26.888C82.1717 26.888 82.1316 26.8747 82.105 26.8613C81.8114 26.6945 81.4979 26.5945 81.2043 26.5945C80.7974 26.5945 80.5373 26.8079 80.5373 27.0949V27.1082C80.5373 27.4351 80.9642 27.5619 81.4246 27.7019C81.9582 27.8621 82.532 28.0689 82.532 28.6892V28.7026C82.532 29.3564 81.9916 29.7367 81.3045 29.7367ZM83.553 25.2269V25.1402C83.553 24.9733 83.6864 24.8666 83.8532 24.8666C84.0266 24.8666 84.1601 24.9733 84.1601 25.1402V25.2269C84.1601 25.3869 84.0266 25.5005 83.8532 25.5005C83.6864 25.5005 83.553 25.3869 83.553 25.2269ZM83.5996 29.4432V26.4478C83.5996 26.3076 83.7131 26.1876 83.8532 26.1876C83.9999 26.1876 84.1133 26.301 84.1133 26.4478V29.4432C84.1133 29.5899 84.0066 29.7033 83.8599 29.7033C83.7131 29.7033 83.5996 29.5899 83.5996 29.4432ZM85.3723 29.4432V26.4478C85.3723 26.3076 85.4857 26.1876 85.6257 26.1876C85.7725 26.1876 85.8859 26.301 85.8859 26.4478V26.8014C86.1127 26.461 86.4196 26.1476 87 26.1476C87.5605 26.1476 87.9206 26.4478 88.1074 26.8347C88.3543 26.4544 88.7212 26.1476 89.3217 26.1476C90.1155 26.1476 90.6025 26.6813 90.6025 27.5352V29.4432C90.6025 29.5899 90.4891 29.7033 90.349 29.7033C90.2023 29.7033 90.0889 29.5899 90.0889 29.4432V27.6552C90.0889 26.9881 89.7552 26.6146 89.1949 26.6146C88.6746 26.6146 88.2476 27.0014 88.2476 27.682V29.4432C88.2476 29.5899 88.1342 29.7033 87.9873 29.7033C87.8473 29.7033 87.7339 29.5899 87.7339 29.4432V27.6419C87.7339 26.9948 87.3936 26.6146 86.8466 26.6146C86.2995 26.6146 85.8859 27.0682 85.8859 27.7019V29.4432C85.8859 29.5899 85.7792 29.7033 85.6324 29.7033C85.4857 29.7033 85.3723 29.5899 85.3723 29.4432ZM91.7845 30.5106V26.4478C91.7845 26.301 91.8979 26.1876 92.038 26.1876C92.1848 26.1876 92.2982 26.301 92.2982 26.4478V26.9148C92.5784 26.501 92.9854 26.1476 93.6191 26.1476C94.4464 26.1476 95.2669 26.8014 95.2669 27.9354V27.9488C95.2669 29.0762 94.4531 29.7434 93.6191 29.7434C92.9787 29.7434 92.5651 29.3965 92.2982 29.0095V30.5106C92.2982 30.6573 92.1914 30.7707 92.0447 30.7707C91.8979 30.7707 91.7845 30.6573 91.7845 30.5106ZM93.5258 29.2831C94.1928 29.2831 94.7399 28.7894 94.7399 27.9555V27.9421C94.7399 27.1282 94.1796 26.6079 93.5258 26.6079C92.8852 26.6079 92.2782 27.1483 92.2782 27.9354V27.9488C92.2782 28.7494 92.8852 29.2831 93.5258 29.2831ZM96.3281 29.4432V25.0268C96.3281 24.8866 96.4415 24.7666 96.5817 24.7666C96.7284 24.7666 96.8418 24.8866 96.8418 25.0268V29.4432C96.8418 29.5899 96.7351 29.7033 96.5882 29.7033C96.4415 29.7033 96.3281 29.5899 96.3281 29.4432ZM98.4075 27.7553H100.629C100.576 27.1282 100.215 26.5811 99.5283 26.5811C98.9279 26.5811 98.4743 27.0815 98.4075 27.7553ZM100.909 29.2296C100.582 29.5432 100.195 29.7501 99.6084 29.7501C98.6611 29.7501 97.8872 29.0229 97.8872 27.9555V27.9421C97.8872 26.9481 98.5877 26.1476 99.5417 26.1476C100.562 26.1476 101.143 26.9814 101.143 27.8954C101.143 28.0356 101.029 28.1356 100.903 28.1356H98.4075C98.4809 28.8827 99.008 29.3031 99.6218 29.3031C100.049 29.3031 100.362 29.1363 100.616 28.9028C100.656 28.8695 100.703 28.8427 100.763 28.8427C100.889 28.8427 100.989 28.9428 100.989 29.0629C100.989 29.1229 100.963 29.183 100.909 29.2296Z" fill="white"/>
<path d="M74.0966 0.00127423C68.9663 0.0986009 64.7927 4.40275 64.7927 9.59564V17.2421C64.7927 18.8968 66.1445 20.2439 67.8061 20.2439C69.4678 20.2439 70.8195 18.898 70.8195 17.2421V9.4458C70.8195 8.50326 71.1963 7.62221 71.8805 6.96525C72.5647 6.30958 73.4638 5.96766 74.4116 6.00351C76.2457 6.07267 77.7375 7.66062 77.7375 9.54313V17.1705C77.7375 18.825 79.0893 20.1709 80.751 20.1709C82.4127 20.1709 83.7644 18.825 83.7644 17.1705V9.4458C83.7644 6.89225 82.7535 4.49879 80.9182 2.70592C79.0828 0.913071 76.6585 -0.047389 74.094 0.00127423H74.0966ZM36.2716 14.4812C35.4047 15.0408 34.5212 15.3008 33.4936 15.3008C30.8775 15.3008 28.9793 13.2313 28.9793 10.3794V10.3077C28.9793 7.58762 30.8673 5.45669 33.2788 5.45669C34.278 5.45669 35.1501 5.70257 35.945 6.20841C37.0728 6.92683 38.5597 6.73218 39.4792 5.74739C40.0579 5.12757 40.319 4.29261 40.1969 3.45637C40.0734 2.61116 39.5769 1.87737 38.8361 1.44196C37.3082 0.544255 35.5012 0.107565 33.3148 0.107565C27.3934 0.107565 22.9268 4.52313 22.9268 10.3794V10.4511C22.9268 16.1716 27.4578 20.6525 33.2428 20.6525C35.6182 20.6525 37.5834 20.0864 39.249 18.9223C39.8946 18.4716 40.3049 17.7634 40.3756 16.9809C40.4463 16.1946 40.1673 15.4224 39.6104 14.8616C38.7216 13.9663 37.3185 13.8076 36.2716 14.4824V14.4812ZM95.4874 8.0256C95.288 7.95645 95.0912 7.89113 94.8843 7.82071C93.2431 7.26748 91.8271 6.78981 91.8271 6.07394V6.00223C91.8271 5.41186 92.4766 5.03025 93.4824 5.03025C94.3685 5.03025 95.5106 5.32734 96.7852 5.88826C97.9542 6.40307 99.3612 5.92027 99.9888 4.78949C100.332 4.17096 100.397 3.43203 100.166 2.76355C99.94 2.10404 99.4422 1.56875 98.803 1.29341C97.1221 0.573709 95.2713 0.176719 93.5891 0.176719C89.1931 0.176719 86.2389 2.74563 86.2389 6.57082V6.64126C86.2389 10.4344 89.1044 11.7944 92.2001 12.6985C92.4495 12.7741 92.6927 12.8458 92.9306 12.915C94.7929 13.4631 95.9246 13.8486 95.9246 14.576V14.6464C95.9246 15.5377 94.8688 15.7246 93.9839 15.7246C92.7146 15.7246 91.2612 15.311 89.7822 14.5299C88.6234 13.9177 87.2125 14.2802 86.4999 15.3725C86.118 15.9564 85.9984 16.68 86.1707 17.3561C86.3431 18.0335 86.7765 18.5894 87.3899 18.9211C89.3912 20.0044 91.6226 20.5769 93.8412 20.5769C98.6448 20.5769 101.513 18.1463 101.513 14.0765V14.0048C101.513 10.3294 98.4044 8.98863 95.49 8.02176L95.4874 8.0256ZM52.0344 0.107565C46.0089 0.107565 41.2901 4.61917 41.2901 10.3794V10.4511C41.2901 16.2664 45.8789 20.6525 51.9636 20.6525C58.0483 20.6525 62.7079 16.1408 62.7079 10.3807V10.3089C62.7079 4.49367 58.119 0.107565 52.0344 0.107565ZM56.6554 10.4511C56.6554 13.2621 54.712 15.302 52.0344 15.302C49.3567 15.302 47.3413 13.1404 47.3413 10.3807V10.3089C47.3413 7.49798 49.2847 5.45797 51.9624 5.45797C54.6401 5.45797 56.6554 7.61965 56.6554 10.3794V10.4511Z" fill="white"/>
<path d="M16.2011 11.6606C15.4657 10.9252 15.4657 9.72802 16.2011 8.99139L19.7143 5.4785C20.9658 4.22711 20.9658 2.19136 19.7143 0.939982C19.1079 0.333644 18.3028 -0.000488281 17.4449 -0.000488281C16.5869 -0.000488281 15.7818 0.333644 15.1754 0.939982L11.6622 4.45288C10.9267 5.18823 9.72943 5.18823 8.99273 4.45288L5.4795 0.939982C4.8731 0.333644 4.06802 -0.000488281 3.21003 -0.000488281C2.35204 -0.000488281 1.54696 0.333644 0.94056 0.939982C-0.310939 2.19136 -0.310939 4.22711 0.94056 5.4785L4.45378 8.99139C5.1892 9.72673 5.1892 10.9239 4.45378 11.6606L0.94056 15.1734C0.334163 15.7798 0 16.5848 0 17.4428C0 18.2993 0.334163 19.1057 0.94056 19.712C1.54696 20.3184 2.35204 20.6525 3.21003 20.6525C4.06802 20.6525 4.8731 20.3184 5.4795 19.712L8.99273 16.1991C9.34882 15.843 9.82362 15.6469 10.3268 15.6469C10.83 15.6469 11.3048 15.843 11.6609 16.1991L15.174 19.712C16.4257 20.9634 18.4615 20.9634 19.713 19.712C20.9645 18.4606 20.9645 16.4248 19.713 15.1734L16.1998 11.6606H16.2011Z" fill="white"/>
<path d="M74.0966 0.00127423C68.9663 0.0986009 64.7928 4.40275 64.7928 9.59564V17.2421C64.7928 18.8968 66.1445 20.2439 67.8061 20.2439C69.4678 20.2439 70.8196 18.898 70.8196 17.2421V9.4458C70.8196 8.50326 71.1964 7.62221 71.8806 6.96525C72.5649 6.30958 73.4638 5.96766 74.4117 6.00351C76.2457 6.07267 77.7377 7.66062 77.7377 9.54313V17.1705C77.7377 18.825 79.0894 20.1709 80.7511 20.1709C82.4128 20.1709 83.7644 18.825 83.7644 17.1705V9.4458C83.7644 6.89225 82.7536 4.49879 80.9183 2.70592C79.083 0.913071 76.6586 -0.047389 74.094 0.00127423H74.0966ZM36.2717 14.4812C35.4048 15.0408 34.5213 15.3008 33.4936 15.3008C30.8777 15.3008 28.9793 13.2313 28.9793 10.3794V10.3077C28.9793 7.58762 30.8673 5.45669 33.2788 5.45669C34.2782 5.45669 35.1501 5.70257 35.945 6.20841C37.073 6.92683 38.5597 6.73218 39.4792 5.74739C40.058 5.12757 40.319 4.29261 40.1969 3.45637C40.0735 2.61116 39.577 1.87737 38.8362 1.44196C37.3083 0.544255 35.5013 0.107565 33.3148 0.107565C27.3936 0.107565 22.9268 4.52313 22.9268 10.3794V10.4511C22.9268 16.1716 27.4578 20.6525 33.2428 20.6525C35.6183 20.6525 37.5835 20.0864 39.2491 18.9223C39.8946 18.4716 40.3049 17.7634 40.3758 16.9809C40.4464 16.1946 40.1673 15.4224 39.6105 14.8616C38.7217 13.9663 37.3186 13.8076 36.2717 14.4824V14.4812ZM95.4875 8.0256C95.2881 7.95645 95.0914 7.89113 94.8843 7.82071C93.2432 7.26748 91.8272 6.78981 91.8272 6.07394V6.00223C91.8272 5.41186 92.4767 5.03025 93.4824 5.03025C94.3686 5.03025 95.5107 5.32734 96.7852 5.88826C97.9543 6.40307 99.3613 5.92027 99.9889 4.78949C100.332 4.17096 100.397 3.43203 100.166 2.76355C99.94 2.10404 99.4423 1.56875 98.8032 1.29341C97.1221 0.573709 95.2715 0.176719 93.5892 0.176719C89.1932 0.176719 86.2389 2.74563 86.2389 6.57082V6.64126C86.2389 10.4344 89.1044 11.7944 92.2001 12.6985C92.4497 12.7741 92.6928 12.8458 92.9307 12.915C94.793 13.4631 95.9248 13.8486 95.9248 14.576V14.6464C95.9248 15.5377 94.8688 15.7246 93.984 15.7246C92.7146 15.7246 91.2613 15.311 89.7823 14.5299C88.6234 13.9177 87.2125 14.2802 86.5001 15.3725C86.1181 15.9564 85.9985 16.68 86.1708 17.3561C86.3431 18.0335 86.7765 18.5894 87.39 18.9211C89.3912 20.0044 91.6227 20.5769 93.8412 20.5769C98.645 20.5769 101.513 18.1463 101.513 14.0765V14.0048C101.513 10.3294 98.4044 8.98863 95.4901 8.02176L95.4875 8.0256ZM52.0344 0.107565C46.0089 0.107565 41.2902 4.61917 41.2902 10.3794V10.4511C41.2902 16.2664 45.879 20.6525 51.9637 20.6525C58.0484 20.6525 62.7079 16.1408 62.7079 10.3807V10.3089C62.7079 4.49367 58.1191 0.107565 52.0344 0.107565ZM56.6555 10.4511C56.6555 13.2621 54.7121 15.302 52.0344 15.302C49.3567 15.302 47.3414 13.1404 47.3414 10.3807V10.3089C47.3414 7.49798 49.2847 5.45797 51.9624 5.45797C54.6401 5.45797 56.6555 7.61965 56.6555 10.3794V10.4511Z" fill="white"/>
<path d="M16.2011 11.6606C15.4657 10.9252 15.4657 9.72802 16.2011 8.99139L19.7143 5.4785C20.9658 4.22711 20.9658 2.19136 19.7143 0.939982C19.108 0.333644 18.3028 -0.000488281 17.4448 -0.000488281C16.5868 -0.000488281 15.7818 0.333644 15.1753 0.939982L11.6621 4.45288C10.9267 5.18823 9.72943 5.18823 8.99273 4.45288L5.47949 0.939982C4.87309 0.333644 4.06801 -0.000488281 3.21003 -0.000488281C2.35204 -0.000488281 1.54696 0.333644 0.940559 0.939982C-0.310939 2.19136 -0.310939 4.22711 0.940559 5.4785L4.45378 8.99139C5.1892 9.72673 5.1892 10.9239 4.45378 11.6606L0.940559 15.1734C0.334162 15.7798 0 16.5848 0 17.4428C0 18.2993 0.334162 19.1057 0.940559 19.712C1.54696 20.3184 2.35204 20.6525 3.21003 20.6525C4.06801 20.6525 4.87309 20.3184 5.47949 19.712L8.99273 16.1991C9.34882 15.843 9.82362 15.6469 10.3268 15.6469C10.83 15.6469 11.3048 15.843 11.6609 16.1991L15.1741 19.712C16.4256 20.9634 18.4616 20.9634 19.7131 19.712C20.9646 18.4606 20.9646 16.4248 19.7131 15.1734L16.1998 11.6606H16.2011Z" fill="white"/>
</g>
<defs>
<clipPath id="clip0_2006_289">
<rect width="101.604" height="31.5155" fill="white"/>
</clipPath>
</defs>
</svg>
