<svg width="472" height="460" viewBox="0 0 472 460" fill="none" xmlns="http://www.w3.org/2000/svg">
<g clip-path="url(#clip0_2039_96)">
<path d="M388.417 0.046875C434.634 0.047047 472 37.3902 472 83.5771V376.423C472 422.61 434.634 459.953 388.417 459.953H83.583C37.3665 459.953 0 422.61 0 376.423V83.5771C0 37.3902 37.3665 0.0470511 83.583 0.046875H388.417ZM338.464 165.731C324.501 165.731 312.897 167.893 303.653 172.61C295.197 176.541 287.921 182.83 283.004 190.691C278.677 197.963 276.317 206.022 276.317 214.474C276.121 221.352 277.693 228.231 280.84 234.521C284.577 241.203 289.69 246.903 295.787 251.227C304.44 257.123 313.684 261.839 323.714 265.377C333.351 269.111 339.841 272.06 342.987 274.615C346.134 277.17 347.707 279.725 347.707 282.477C347.707 286.014 345.544 289.356 342.397 290.731C338.857 292.5 333.547 293.482 326.073 293.482C318.207 293.482 310.34 292.5 302.867 290.534C294.214 288.569 286.15 285.425 278.48 280.904C277.89 280.511 277.3 280.315 276.71 280.708C276.12 281.101 275.924 281.887 275.924 282.477V316.675C275.727 318.247 276.71 319.623 278.087 320.409C284.38 323.357 291.264 325.519 298.147 326.698C306.997 328.467 315.847 329.253 324.894 329.253C339.054 329.253 350.854 327.091 360.49 322.964C369.34 319.426 377.01 313.333 382.517 305.472C387.63 297.807 390.383 288.569 390.187 279.332C390.383 272.257 388.811 265.377 385.664 259.088C381.927 252.406 376.617 246.903 370.127 242.775C360.687 236.879 350.46 231.965 339.84 228.428C335.12 226.462 330.4 224.3 325.877 221.941C323.321 220.566 320.96 218.797 319.19 216.636C318.01 215.063 317.224 213.294 317.224 211.525C317.224 209.757 317.814 207.791 318.797 206.219C320.174 204.253 322.337 202.878 324.894 202.288C328.63 201.305 332.76 200.716 336.693 200.912C344.167 200.912 351.444 201.894 358.721 203.467C365.407 204.843 371.701 207.005 377.601 210.149C378.387 210.542 379.371 210.542 381.141 210.149C381.73 209.756 382.124 208.97 382.124 208.184V176.147C382.124 175.361 381.927 174.575 381.73 173.789C381.337 173.003 380.55 172.217 379.764 172.021C374.454 169.859 368.75 168.286 362.851 167.5C354.787 166.321 346.527 165.731 338.464 165.731ZM169.134 116.989C163.234 116.989 157.334 116.989 151.237 117.186C145.141 117.382 139.437 117.383 134.127 117.579C128.817 117.776 123.901 117.775 119.181 117.972C114.657 118.168 111.51 118.168 108.167 118.168C106.79 118.168 106.2 118.954 106.2 120.33V322.571C106.2 324.34 106.987 325.126 108.561 325.126H146.714C148.09 324.929 149.074 323.75 148.877 322.374V259.284C152.614 259.284 155.367 259.285 157.334 259.481C159.301 259.678 162.447 259.678 167.167 259.678C183.294 259.678 198.044 257.909 211.417 252.995C224.2 248.278 235.213 240.024 243.08 229.018C250.947 218.011 254.88 204.057 254.88 187.154C254.88 178.31 253.307 169.858 250.357 161.604C247.211 153.152 242.293 145.488 236 139.198C228.527 131.926 219.48 126.423 209.646 123.082C198.633 118.955 185.26 116.989 169.134 116.989ZM170.511 155.708C178.574 155.512 186.44 156.691 193.717 159.639C199.42 161.801 204.14 165.731 207.483 170.841C210.63 176.147 212.203 182.24 212.007 188.333C212.007 196.981 210.04 203.664 205.91 208.577C201.584 213.491 196.076 217.225 189.783 218.994C182.507 221.353 174.837 222.531 167.167 222.531H156.743C154.383 222.531 151.826 222.335 149.073 222.139V156.101C150.45 155.904 153.204 155.708 157.137 155.904C160.873 155.708 165.397 155.708 170.511 155.708Z" fill="#1D1F23"/>
</g>
<defs>
<clipPath id="clip0_2039_96">
<rect width="472" height="460" fill="white"/>
</clipPath>
</defs>
</svg>
