<svg xmlns="http://www.w3.org/2000/svg" viewBox="0 0 640 512">
  <path fill="#FF9900" d="M180.4 203c-.72 22.65 10.6 32.68 10.88 39.05a8.164 8.164 0 0 1-4.1 6.27l-12.8 8.96a10.66 10.66 0 0 1-5.63 1.92c-.43-.02-8.19 1.83-20.48-25.61a78.61 78.61 0 0 1-62.61 29.45c-16.28.89-60.4-9.24-58.13-56.21-1.59-38.28 34.06-62.06 70.93-60.05 13.73.63 28.59 3.71 44.63 8.98v-12.87c0-21.24-2.23-54.17-55.36-53.81-13.16-.04-33.26 2.58-54.21 12.34l-4.41 1.35c-3.58 1.3-9.74-1.14-9.74-7.47l2.1-38.47c1.78-6.03 4.71-7.04 8.75-8.56C47.83 42.15 79.68 38 111.17 38c108.62 0 99.5 84.26 99.5 105.17v59.83zM84.98 249.13c36.26 4.13 64.02-23.71 64.02-52.93v-7.63c-12.68-3.27-25.69-4.82-38.17-5.63-26.12-1.63-55.38 5.91-55.38 36.08 0 17.93 10.77 30.11 29.53 30.11zm110.98 110.46c-7.73 6.46-11.98 6.45-17.94 4.79-19.73-11.68-41.75-41.44-41.75-41.44l-60.48 60.25c-8.77 9.33-23.81 13.32-35.62 6.59-21.57-12.32-38.64-29.92-49.18-51.51-3.01-6.17 6.54-14.09 12.53-8.07 21.6 21.74 44.06 36.18 68.45 36.18 19.71 0 31.97-7.83 31.97-28.54v-155c0-16.18 16.18-28.89 38.82-28.89 22.64 0 45.28 7.51 60.09 20.12 2.1 1.79 4.82 5.82 4.82 10.03v209.63c0 4.04-5.59 10.61-11.71 16.06zm105.52-51.74c-36.14 0-53.73-22.86-53.73-51.59V142.35c0-5.77 4.19-10.38 9.94-10.38h53.07c5.77 0 9.94 4.61 9.94 10.38v115.77c0 15.13 3.33 28.05 24.96 28.05 19.28 0 41.19-12.37 58.96-29.88V142.35c0-5.77 4.19-10.38 9.94-10.38h53.07c5.77 0 9.94 4.61 9.94 10.38v196.53c0 5.77-4.19 10.38-9.94 10.38h-53.07c-5.77 0-9.94-4.61-9.94-10.38v-18.9c-20.64 19.84-46.48 35.13-79.02 35.13-.76 0-1.52-.02-2.29-.05-5.77-.24-10.53-4.88-10.53-10.65v-36.56z"/>
</svg>
