<?xml version="1.0" encoding="utf-8"?>
<svg width="800px" height="800px" viewBox="0 0 256 108" xmlns="http://www.w3.org/2000/svg" preserveAspectRatio="xMidYMid">
  <path d="M6.32 62.837c-.2 0-.29-.108-.18-.27l2.34-3.006c.11-.163.39-.27.58-.27h39.67c.2 0 .29.163.18.325l-1.91 2.952c-.11.162-.39.325-.58.325l-40.1-.056z" fill="#00ADD8"/>
  <path d="M.2 78.71c-.2 0-.29-.109-.18-.271l2.34-3.006c.11-.163.39-.271.58-.271h50.7c.2 0 .34.163.29.325l-.92 2.789c-.05.217-.29.38-.49.38L.2 78.71z" fill="#00ADD8"/>
  <path d="M19.08 94.582c-.2 0-.29-.162-.18-.324l1.56-2.898c.11-.163.34-.325.54-.325h22.26c.2 0 .34.162.34.379l-.16 2.735c0 .217-.2.38-.4.38l-23.96.053z" fill="#00ADD8"/>
  <path d="M128.78 60.266c-7.8 1.952-13.13 3.416-20.84 5.368-1.91.488-2.02.542-3.62-1.302-1.8-2.118-3.13-3.525-5.65-4.826-7.63-4.068-15.01-2.844-21.94 1.52-8.23 5.205-12.5 12.853-12.4 22.323.09 9.416 6.64 17.173 15.93 18.423 7.96 1.085 14.65-1.681 19.99-7.592 1.1-1.302 2.07-2.711 3.24-4.284H81.42c-2.67 0-3.33-1.681-2.44-3.851 1.64-4.013 4.7-10.74 6.47-14.104.39-.759 1.31-1.952 3.06-1.952h44.77c-.25 3.2-.25 6.4-.68 9.578-1.22 9.145-4.76 17.335-10.9 24.278-10.11 11.442-22.85 17.173-38.38 17.606-13.24.38-24.96-3.362-34.34-12.798C39.65 99.22 35.39 87.344 35.71 73.783c.36-16.477 6.85-30.635 18.48-42.186 11.53-11.498 25.81-17.877 42.5-18.477 13.61-.488 25.93 2.844 36.31 11.389 6.93 5.693 11.82 12.853 14.72 21.351.55 1.14-.02 1.736-1.33 2.064l-17.61 12.342z" fill="#00ADD8"/>
  <path d="M161.76 106.508c-12.71-.271-24.27-3.959-33.96-12.528-8.16-7.213-13.01-16.315-14.44-27.107-1.97-14.862 2.35-27.984 12.03-39.317 10.13-11.876 23.25-18.151 38.82-19.399 13.13-1.031 25.24 1.573 35.7 9.762 9.1 7.105 14.73 16.37 16.54 27.703 2.32 15.08-1.57 28.364-11.12 39.966-8.32 10.12-19.19 16.477-32.14 19.074-3.78.65-7.62.867-11.43.846zm31.79-53.792c-.14-1.952-.14-3.471-.45-4.935-2.81-14.104-15.39-22.269-29.21-19.345-13.4 2.844-22.19 11.984-24.99 25.574-2.36 11.605 3.28 23.264 13.79 28.739 8.07 4.23 16.28 4.013 24.17.163 10.59-5.205 16.32-13.771 16.69-30.196z" fill="#00ADD8"/>
</svg>
