<svg xmlns="http://www.w3.org/2000/svg" viewBox="0 0 640 512">
  <path fill="#00ADD8" d="M400.1 194.8C389.2 197.6 380.2 199.1 371 202.4C363.7 204.3 356.3 206.3 347.8 208.5L347.2 208.6C343 209.8 342.6 209.9 338.7 205.4C334.2 200.2 330.6 196.3 324.6 193.1C304.9 183.1 285.5 185.1 267.5 195.9C245.6 209.5 234.4 230.2 234.8 255.9C235.2 281.1 253.1 302.3 277.7 306.8C299.1 310.7 317.5 304.2 332.2 288.3C335.2 285 337.9 281.4 341.5 276.9L341.6 276.8C340.2 276.8 339 276.9 337.8 276.9C329.8 276.9 321.8 277 313.8 276.8C303.1 276.5 296.5 269 296.8 259.6C297 251.6 302.7 245 312.5 244.8L398.8 244.8C411.1 244.8 418.6 251.8 418.6 264.6C418.3 287.1 411.7 307.8 399.2 326.3C377.1 358.9 345.6 377.2 305 382.2C273.1 386.2 243.1 381.3 216.3 363.5C190.9 346.5 174.7 322.4 168.1 292.4C160.5 257.5 167.6 224.5 187.4 194.6C210.9 158.8 244.5 137.3 287.4 130.5C320.9 125.2 352.4 130.4 380.4 150.2C397.3 162 409.7 177.6 418.6 196C420.3 199 419.6 200.8 416.2 202C411 204.1 405.8 205.8 400.1 194.8zM48.1 200.4C47.6 200.4 47.4 199.8 47.8 199.3C49.9 196.7 52 194.2 54.2 191.8C64.3 180.1 76.6 171.4 91.3 166.2C115.8 157.4 139.1 159.2 160.8 174.1C176.5 185.1 186.4 200.4 192.1 218.6C192.5 219.8 192.2 220.3 190.8 220.3L166.6 220.3C164.3 220.3 162.9 219.4 162.1 217.2C158.3 206.8 152.6 197.7 143.6 190.9C127.5 178.7 109.5 176.1 90.5 183.4C68.9 191.8 55.8 207.8 51.2 230.8C45.8 257.1 54.4 279.8 75.3 296.9C88.3 307.6 103.6 312 120.3 311.8C139.3 311.5 155.2 304.6 167.8 290.5C170.8 287 173.3 283.1 176.1 279.5C177.4 277.8 179 277 181.2 277L205.4 277C207.8 277 208.4 278.3 207.8 280.5C203.7 296.7 195.3 310.5 183.2 322.1C163.9 340.2 140.8 349.6 114.1 350.9C91.6 352 70.4 347 51.5 334.5C30.8 320.8 17.1 301.7 10.5 277.3C3.2 250.4 5.8 224.3 18.6 199.7C32.9 172.1 55.4 153.5 85.2 144.3C107.6 137.3 130 137 152.2 143.6C173.3 149.9 190.4 162.3 203.3 179.5C205.1 182 204.9 183.5 202.2 184.8C196.3 187.7 190.5 190.8 184.6 193.7C181.4 195.3 178.8 194.7 176.6 191.8C164.3 175.4 148.1 165.4 127.4 163.4C105.4 161.3 85.6 167.6 69.3 183.3C60.8 191.5 54.4 201.3 50.4 212.4C49.8 214.1 49.4 214.4 48.1 200.4zM32.4 286.4C32.1 286.1 31.7 285.6 32.1 285.2C33.1 283.6 34.1 281.9 35.3 280.4C48.5 261.8 66.6 250.6 89.1 247.8C108.6 245.4 126.5 249.8 142.1 262.4C152.7 271 160.1 282.1 164.3 295.1C165 297.3 164.5 298.3 162.2 298.3L138 298.3C135.6 298.3 134.1 297.3 133.3 295C129.9 284.8 124.4 275.9 115.8 269.2C99.9 257 82.2 254.4 63.4 261.1C48.3 266.5 38.5 277.5 33.5 292.7C32.7 295.1 32.6 295.1 32.4 286.4z"/>
</svg>
