<svg width="1802" height="479" viewBox="0 0 1802 479" fill="none" xmlns="http://www.w3.org/2000/svg">
<path d="M509.852 311.914V168.672H547.782V222.002H590.565V168.672H628.495V311.914H590.565V255.059H547.782V311.914H509.852ZM690.603 314.559C678.547 314.559 669.8 310.519 664.36 302.439C658.92 294.211 656.201 283.266 656.201 269.602V201.729H694.132V264.755C694.132 271.807 695.014 276.507 696.778 278.858C698.689 281.209 701.482 282.384 705.159 282.384C708.685 282.384 711.627 281.65 713.979 280.181C716.332 278.712 718.684 276.214 721.037 272.687V201.729H758.967V311.914H728.092L725.446 297.371H724.563C720.154 302.659 715.229 306.847 709.789 309.932C704.497 313.017 698.102 314.559 690.603 314.559ZM824.71 357.312C816.331 357.312 808.611 356.357 801.554 354.447C794.499 352.683 788.839 349.818 784.575 345.851C780.457 341.886 778.4 336.596 778.4 329.984C778.4 321.318 783.545 314.265 793.837 308.829V307.947C791.018 305.864 788.559 303.333 786.559 300.456C784.648 297.371 783.692 293.549 783.692 288.995C783.692 285.176 784.796 281.429 787 277.757C789.353 274.083 792.367 270.925 796.042 268.281V267.399C792.072 264.755 788.545 261.008 785.458 256.159C782.516 251.164 781.046 245.508 781.046 239.192C781.046 230.082 783.251 222.591 787.662 216.714C792.219 210.689 798.1 206.283 805.303 203.491C812.509 200.553 820.153 199.083 828.239 199.083C834.707 199.083 840.588 199.965 845.88 201.729H886.899V229.054H871.021C871.461 230.377 871.829 232.067 872.123 234.122C872.564 236.179 872.785 238.31 872.785 240.513C872.785 249.182 870.801 256.234 866.831 261.67C862.861 266.958 857.496 270.853 850.732 273.349C843.969 275.847 836.472 277.096 828.239 277.096C824.564 277.096 820.446 276.582 815.889 275.552C814.124 277.168 813.243 279.299 813.243 281.943C813.243 284.294 814.42 285.983 816.772 287.013C819.27 288.04 823.24 288.554 828.68 288.554H845.22C859.039 288.554 869.697 290.832 877.196 295.386C884.84 299.794 888.663 307.065 888.663 317.203C888.663 325.137 886.017 332.115 880.725 338.139C875.578 344.162 868.228 348.864 858.67 352.242C849.115 355.623 837.794 357.312 824.71 357.312ZM828.239 254.618C831.767 254.618 834.634 253.369 836.838 250.871C839.045 248.374 840.146 244.48 840.146 239.192C840.146 234.049 839.045 230.302 836.838 227.952C834.634 225.455 831.767 224.207 828.239 224.207C824.71 224.207 821.843 225.455 819.639 227.952C817.432 230.302 816.331 234.049 816.331 239.192C816.331 244.48 817.432 248.374 819.639 250.871C821.843 253.369 824.71 254.618 828.239 254.618ZM830.885 333.952C837.059 333.952 842.205 332.997 846.321 331.087C850.439 329.323 852.496 326.899 852.496 323.814C852.496 320.877 851.174 319.04 848.528 318.305C846.027 317.571 842.426 317.203 837.721 317.203H829.121C824.71 317.203 821.329 317.057 818.977 316.762C816.772 316.616 814.861 316.323 813.243 315.882C810.597 318.526 809.273 321.17 809.273 323.814C809.273 327.34 811.257 329.912 815.227 331.528C819.345 333.144 824.564 333.952 830.885 333.952ZM945.096 357.312C936.714 357.312 928.997 356.357 921.94 354.447C914.883 352.683 909.222 349.818 904.959 345.851C900.843 341.886 898.784 336.596 898.784 329.984C898.784 321.318 903.93 314.265 914.221 308.829V307.947C911.402 305.865 908.944 303.334 906.945 300.456C905.032 297.371 904.076 293.549 904.076 288.995C904.076 285.176 905.179 281.429 907.384 277.757C909.736 274.083 912.751 270.925 916.427 268.281V267.399C912.457 264.755 908.929 261.008 905.841 256.159C902.9 251.164 901.43 245.508 901.43 239.192C901.43 230.082 903.637 222.591 908.046 216.714C912.603 210.689 918.484 206.283 925.689 203.491C932.892 200.553 940.537 199.083 948.622 199.083C955.092 199.083 960.974 199.965 966.265 201.729H1007.28V229.054H991.405C991.846 230.377 992.213 232.067 992.508 234.122C992.948 236.179 993.168 238.31 993.168 240.513C993.168 249.182 991.184 256.234 987.214 261.67C983.247 266.958 977.88 270.853 971.116 273.349C964.354 275.847 956.856 277.096 948.622 277.096C944.948 277.096 940.832 276.582 936.273 275.552C934.51 277.168 933.627 279.299 933.627 281.943C933.627 284.294 934.803 285.983 937.156 287.013C939.656 288.04 943.624 288.554 949.064 288.554H965.603C979.422 288.554 990.081 290.832 997.58 295.386C1005.22 299.794 1009.05 307.065 1009.05 317.203C1009.05 325.137 1006.4 332.115 1001.11 338.139C995.962 344.162 988.611 348.864 979.056 352.242C969.501 355.623 958.18 357.312 945.096 357.312ZM948.622 254.618C952.151 254.618 955.017 253.369 957.224 250.871C959.429 248.374 960.532 244.48 960.532 239.192C960.532 234.049 959.429 230.302 957.224 227.952C955.017 225.455 952.151 224.207 948.622 224.207C945.096 224.207 942.227 225.455 940.022 227.952C937.818 230.302 936.714 234.049 936.714 239.192C936.714 244.48 937.818 248.374 940.022 250.871C942.227 253.369 945.096 254.618 948.622 254.618ZM951.27 333.952C957.445 333.952 962.589 332.997 966.707 331.087C970.822 329.323 972.881 326.899 972.881 323.814C972.881 320.877 971.557 319.04 968.911 318.305C966.413 317.571 962.81 317.203 958.105 317.203H949.505C945.096 317.203 941.713 317.057 939.36 316.762C937.156 316.616 935.245 316.323 933.627 315.882C930.981 318.526 929.657 321.17 929.657 323.814C929.657 327.34 931.643 329.912 935.613 331.528C939.729 333.144 944.948 333.952 951.27 333.952ZM1025.34 311.914V201.729H1063.27V311.914H1025.34ZM1044.31 188.065C1038.14 188.065 1033.13 186.376 1029.31 182.997C1025.49 179.471 1023.58 174.842 1023.58 169.113C1023.58 163.384 1025.49 158.828 1029.31 155.449C1033.13 151.923 1038.14 150.161 1044.31 150.161C1050.48 150.161 1055.48 151.923 1059.3 155.449C1063.13 158.828 1065.04 163.384 1065.04 169.113C1065.04 174.842 1063.13 179.471 1059.3 182.997C1055.48 186.376 1050.48 188.065 1044.31 188.065ZM1088.87 311.914V201.729H1119.75L1122.39 214.949H1123.28C1127.69 210.689 1132.69 207.017 1138.27 203.932C1144 200.699 1150.62 199.083 1158.12 199.083C1170.32 199.083 1179.07 203.198 1184.36 211.425C1189.8 219.505 1192.52 230.377 1192.52 244.039V311.914H1154.59V248.888C1154.59 241.836 1153.71 237.134 1151.94 234.783C1150.18 232.433 1147.39 231.257 1143.56 231.257C1140.04 231.257 1137.1 231.992 1134.74 233.462C1132.39 234.931 1129.74 236.989 1126.8 239.633V311.914H1088.87ZM1257.36 357.312C1248.98 357.312 1241.26 356.357 1234.21 354.447C1227.15 352.683 1221.49 349.818 1217.23 345.851C1213.11 341.886 1211.05 336.596 1211.05 329.984C1211.05 321.318 1216.2 314.265 1226.49 308.829V307.947C1223.67 305.864 1221.21 303.333 1219.21 300.456C1217.3 297.371 1216.34 293.549 1216.34 288.995C1216.34 285.176 1217.45 281.429 1219.65 277.757C1222.01 274.083 1225.02 270.925 1228.69 268.281V267.399C1224.72 264.755 1221.2 261.008 1218.11 256.159C1215.17 251.164 1213.7 245.508 1213.7 239.192C1213.7 230.082 1215.9 222.591 1220.31 216.714C1224.87 210.689 1230.75 206.283 1237.96 203.491C1245.16 200.553 1252.81 199.083 1260.89 199.083C1267.36 199.083 1273.24 199.965 1278.53 201.729H1319.55V229.054H1303.67C1304.11 230.377 1304.48 232.067 1304.77 234.122C1305.22 236.179 1305.44 238.31 1305.44 240.513C1305.44 249.182 1303.45 256.234 1299.48 261.67C1295.51 266.958 1290.15 270.853 1283.38 273.349C1276.62 275.847 1269.12 277.096 1260.89 277.096C1257.21 277.096 1253.1 276.582 1248.54 275.552C1246.78 277.168 1245.9 279.299 1245.9 281.943C1245.9 284.294 1247.07 285.983 1249.42 287.013C1251.92 288.04 1255.89 288.554 1261.33 288.554H1277.87C1291.69 288.554 1302.35 290.832 1309.85 295.386C1317.49 299.794 1321.31 307.065 1321.31 317.203C1321.31 325.137 1318.67 332.115 1313.37 338.139C1308.23 344.162 1300.88 348.864 1291.32 352.242C1281.77 355.623 1270.45 357.312 1257.36 357.312ZM1260.89 254.618C1264.42 254.618 1267.29 253.369 1269.49 250.871C1271.7 248.374 1272.8 244.48 1272.8 239.192C1272.8 234.049 1271.7 230.302 1269.49 227.952C1267.29 225.455 1264.42 224.207 1260.89 224.207C1257.36 224.207 1254.5 225.455 1252.29 227.952C1250.08 230.302 1248.98 234.049 1248.98 239.192C1248.98 244.48 1250.08 248.374 1252.29 250.871C1254.5 253.369 1257.36 254.618 1260.89 254.618ZM1263.54 333.952C1269.71 333.952 1274.86 332.997 1278.97 331.087C1283.09 329.323 1285.15 326.899 1285.15 323.814C1285.15 320.877 1283.83 319.04 1281.18 318.305C1278.68 317.571 1275.08 317.203 1270.37 317.203H1261.77C1257.36 317.203 1253.98 317.057 1251.63 316.762C1249.42 316.616 1247.51 316.323 1245.9 315.882C1243.25 318.526 1241.93 321.17 1241.93 323.814C1241.93 327.34 1243.91 329.912 1247.88 331.528C1252 333.144 1257.21 333.952 1263.54 333.952ZM1384.85 311.914V168.672H1478.35V200.406H1422.78V227.731H1470.41V259.465H1422.78V311.914H1384.85ZM1519.83 314.559C1512.92 314.559 1506.96 313.017 1501.97 309.932C1497.19 306.787 1493.32 302.459 1490.72 297.371C1488.07 292.228 1486.75 286.644 1486.75 280.622C1486.75 269.161 1491.46 260.201 1500.86 253.735C1510.27 247.124 1525.56 242.718 1546.73 240.513C1545.85 232.874 1540.7 229.054 1531.3 229.054C1527.33 229.054 1523.14 229.861 1518.73 231.478C1514.32 232.947 1509.24 235.225 1503.51 238.31L1490.28 213.628C1498.07 208.927 1505.94 205.328 1513.87 202.829C1521.94 200.335 1530.35 199.072 1538.79 199.083C1553.2 199.083 1564.45 203.198 1572.53 211.425C1580.62 219.505 1584.66 232.58 1584.66 250.65V311.914H1553.79L1551.14 301.336H1550.26C1545.85 305.303 1541.15 308.536 1536.15 311.032C1531.3 313.383 1525.86 314.559 1519.83 314.559ZM1533.06 285.469C1536.15 285.469 1538.72 284.808 1540.78 283.487C1542.84 282.018 1544.82 280.181 1546.73 277.978V262.991C1537.76 264.314 1531.52 266.297 1527.99 268.941C1524.61 271.587 1522.92 274.452 1522.92 277.537C1522.92 282.825 1526.3 285.469 1533.06 285.469ZM1659.23 314.559C1648.79 314.559 1639.38 312.281 1631 307.727C1622.62 303.173 1615.93 296.634 1610.94 288.113C1606.08 279.446 1603.66 269.016 1603.66 256.821C1603.66 244.628 1606.38 234.27 1611.82 225.749C1617.4 217.08 1624.68 210.47 1633.65 205.914C1642.62 201.361 1652.32 199.083 1662.76 199.083C1669.37 199.083 1675.33 200.112 1680.62 202.168C1686.06 204.225 1690.84 207.017 1694.95 210.543L1677.31 234.783C1674.96 232.728 1672.83 231.332 1670.92 230.598C1669.02 229.864 1667 229.49 1664.96 229.495C1657.91 229.495 1652.39 231.992 1648.42 236.989C1644.45 241.836 1642.47 248.447 1642.47 256.821C1642.47 265.196 1644.53 271.88 1648.65 276.875C1652.76 281.722 1657.76 284.148 1663.64 284.148C1666.73 284.148 1669.74 283.487 1672.68 282.163C1675.7 280.738 1678.58 279.041 1681.28 277.096L1695.84 301.777C1690.4 306.626 1684.37 310.005 1677.75 311.914C1671.14 313.677 1664.96 314.559 1659.23 314.559ZM1757.9 314.559C1747.16 314.559 1737.46 312.281 1728.79 307.727C1720.26 303.173 1713.49 296.634 1708.5 288.113C1703.5 279.446 1701 269.016 1701 256.821C1701 244.921 1703.5 234.711 1708.5 226.19C1713.64 217.521 1720.26 210.837 1728.34 206.135C1736.43 201.433 1744.96 199.083 1753.93 199.083C1764.8 199.083 1773.77 201.508 1780.83 206.356C1788.03 211.057 1793.33 217.448 1796.71 225.528C1800.23 233.608 1802 242.57 1802 252.414C1802 255.645 1801.78 258.805 1801.34 261.89C1801.04 264.828 1800.75 266.958 1800.46 268.281H1737.61C1739.37 274.893 1742.53 279.519 1747.09 282.163C1751.65 284.662 1757.01 285.91 1763.19 285.91C1770.24 285.91 1777.74 283.707 1785.68 279.299L1798.03 301.777C1792.15 305.89 1785.53 309.05 1778.18 311.253C1770.83 313.456 1764.07 314.559 1757.9 314.559ZM1737.16 243.598H1769.8C1769.8 239.337 1768.7 235.666 1766.5 232.58C1764.44 229.348 1760.54 227.731 1754.81 227.731C1750.69 227.731 1747.02 228.981 1743.78 231.478C1740.55 233.976 1738.34 238.016 1737.16 243.598Z" fill="#1D1F23"/>
<path d="M409.72 356.033C411.803 352.902 413.2 349.367 413.82 345.659C414.44 341.952 414.269 338.155 413.317 334.518C411.935 329.271 409.079 324.906 405.203 321.771C407.068 318.705 408.294 315.292 408.804 311.74C409.92 304.013 407.355 296.297 401.58 290.009C397.086 285.113 390.728 282.419 383.691 282.419C382.873 282.419 382.043 282.461 381.193 282.546C386.525 265.512 389.229 247.766 389.212 229.918C389.212 132.826 310.444 54.1074 213.28 54.1074C116.117 54.1074 37.3397 132.817 37.3397 229.918C37.3229 247.72 40.0134 265.421 45.3192 282.415H45.1318C38.0954 282.415 31.7397 285.109 27.2451 290.004C21.4744 296.289 18.9055 304.009 20.0213 311.736C20.5307 315.288 21.7559 318.701 23.6228 321.767C19.7465 324.902 16.8903 329.267 15.5101 334.516C14.557 338.153 14.3852 341.951 15.0059 345.659C15.6267 349.368 17.0259 352.903 19.1116 356.033C18.7389 356.609 18.3975 357.208 18.0769 357.82C14.6003 364.416 14.3755 371.87 17.4461 378.812C22.0989 389.333 33.6633 397.623 56.1195 406.518C70.0821 412.054 82.8705 415.591 82.983 415.624C101.453 420.411 118.155 422.843 132.615 422.843C156.36 422.843 174.076 416.352 185.39 403.527C204.535 406.562 224.047 406.452 243.156 403.2C254.454 416.24 272.272 422.843 296.217 422.843C310.677 422.843 327.381 420.411 345.851 415.624C345.963 415.591 358.745 412.054 372.714 406.518C395.17 397.623 406.735 389.333 411.387 378.812C414.458 371.87 414.235 364.416 410.757 357.82C410.44 357.208 410.094 356.611 409.72 356.033ZM177.294 383.452C176.321 385.155 175.277 386.817 174.165 388.434C171.24 392.713 167.393 395.981 162.93 398.413C154.393 403.063 143.59 404.69 132.613 404.69C115.276 404.69 97.5014 400.635 87.5379 398.051C87.0487 397.925 26.4707 380.826 34.14 366.272C35.4307 363.826 37.5562 362.848 40.2292 362.848C51.0275 362.848 70.69 378.916 79.1421 378.916C81.0282 378.916 82.3605 378.111 82.9039 376.154C86.5054 363.245 28.1673 357.82 33.0804 339.13C33.9485 335.822 36.2988 334.48 39.6068 334.48C53.8816 334.478 85.9245 359.567 92.6258 359.567C93.14 359.567 93.5085 359.417 93.7083 359.101L93.7958 358.958C96.9393 353.767 95.1365 349.993 73.5858 336.804L71.5165 335.545C47.8049 321.201 31.1589 312.572 40.6269 302.274C41.7156 301.084 43.2582 300.558 45.1339 300.558C47.3594 300.558 50.0511 301.303 53.0156 302.549C65.5396 307.827 82.8976 322.221 90.1485 328.499C92.2865 330.359 93.546 331.495 93.546 331.495C93.546 331.495 102.727 341.035 108.279 341.035C109.557 341.035 110.64 340.534 111.374 339.288C115.313 332.656 74.8119 301.987 72.5282 289.335C70.9814 280.759 73.6149 276.418 78.4884 276.418C80.8033 276.418 83.6304 277.402 86.751 279.38C96.4313 285.521 115.122 317.617 121.964 330.101C124.259 334.287 128.174 336.055 131.703 336.055C138.704 336.055 144.177 329.1 132.344 320.263C114.56 306.963 120.801 285.228 129.288 283.89C129.65 283.834 130.017 283.805 130.381 283.803C138.1 283.803 141.506 297.096 141.506 297.096C141.506 297.096 151.484 322.14 168.628 339.257C184.185 354.795 186.356 367.547 177.294 383.452ZM232.73 386.385L231.841 386.491L230.324 386.666C229.526 386.747 228.729 386.826 227.928 386.901L227.145 386.971L226.433 387.032L225.419 387.113C225.046 387.14 224.674 387.169 224.301 387.192L223.185 387.267L222.94 387.281L222.061 387.334L221.688 387.352L220.648 387.404L219.438 387.454L218.339 387.492L217.606 387.512H217.236C217.007 387.512 216.78 387.525 216.551 387.527H216.186C215.957 387.527 215.73 387.527 215.501 387.539L214.571 387.55H213.268C212.245 387.55 211.228 387.539 210.21 387.521L209.385 387.502C209.152 387.502 208.917 387.49 208.684 387.483L207.811 387.456L206.725 387.415L205.748 387.373L205.494 387.363L204.564 387.313C204.306 387.298 204.047 387.286 203.791 387.269L203.19 387.234C202.434 387.185 201.678 387.132 200.923 387.073L200.132 387.011L199.132 386.926L197.964 386.818C197.312 386.757 196.661 386.691 196.01 386.618H195.978C205.492 365.409 200.681 345.602 181.456 326.404C168.849 313.822 160.459 295.239 158.721 291.159C155.198 279.083 145.874 265.658 130.392 265.658C129.083 265.66 127.777 265.764 126.484 265.968C119.7 267.033 113.771 270.936 109.54 276.807C104.971 271.125 100.526 266.609 96.5084 264.056C90.4503 260.22 84.4069 258.273 78.5154 258.273C71.1667 258.273 64.5945 261.289 60.0146 266.761L59.9001 266.9L59.6419 265.816L59.6315 265.77C58.7606 262.046 58.0287 258.29 57.4373 254.512C57.4373 254.485 57.4373 254.46 57.4248 254.435L57.2958 253.58C57.226 253.117 57.158 252.655 57.0917 252.192C57.0376 251.807 56.9835 251.422 56.9335 251.039C56.8836 250.657 56.8294 250.272 56.7836 249.887C56.7337 249.5 56.6879 249.115 56.6421 248.73C56.5982 248.364 56.5559 247.998 56.5151 247.632L56.5026 247.538C56.315 245.85 56.154 244.158 56.0196 242.464L55.9467 241.484C55.9258 241.214 55.9071 240.944 55.8905 240.673C55.8905 240.611 55.8822 240.546 55.8781 240.488L55.8094 239.402C55.7844 239.009 55.7656 238.616 55.7448 238.222C55.724 237.831 55.7032 237.438 55.6865 237.043L55.6449 236.013L55.6324 235.701L55.6012 234.748L55.5804 233.941C55.5804 233.619 55.5637 233.294 55.5575 232.972L55.5408 231.954C55.5366 231.615 55.5408 231.278 55.5325 230.939C55.5221 230.598 55.5325 230.259 55.5325 229.918C55.5325 142.851 126.17 72.2626 213.305 72.2626C300.441 72.2626 371.076 142.847 371.076 229.918V231.954C371.076 232.293 371.067 232.635 371.059 232.972C371.059 233.255 371.049 233.531 371.04 233.814C371.04 234.066 371.03 234.316 371.02 234.559C371.02 234.877 371.001 235.193 370.99 235.512V235.539L370.905 237.611L370.893 237.84L370.838 238.871L370.788 239.689C370.671 241.627 370.52 243.563 370.335 245.495V245.522C370.301 245.884 370.264 246.248 370.224 246.61L369.945 249.138L369.839 249.985L369.708 250.979C369.662 251.343 369.612 251.705 369.56 252.067C369.504 252.473 369.444 252.876 369.385 253.28L369.24 254.233L369.069 255.315C369.011 255.674 368.952 256.032 368.884 256.392C368.813 256.75 368.759 257.108 368.696 257.468C368.571 258.183 368.442 258.897 368.303 259.61C368.027 261.031 367.736 262.448 367.431 263.863C367.353 264.215 367.274 264.568 367.193 264.92C362.753 260.607 356.874 258.258 350.387 258.258C344.502 258.258 338.452 260.203 332.396 264.042C328.376 266.592 323.936 271.111 319.362 276.792C315.125 270.919 309.197 267.019 302.42 265.951C301.127 265.749 299.82 265.646 298.511 265.643C283.024 265.643 273.706 279.068 270.182 291.144C268.435 295.224 260.045 313.806 247.424 326.408C228.213 345.543 223.364 365.263 232.73 386.385ZM395.61 343.929L395.547 344.114C395.504 344.233 395.459 344.351 395.412 344.468C395.157 345.066 394.849 345.641 394.492 346.184C394.144 346.702 393.763 347.197 393.349 347.663C393.253 347.772 393.161 347.878 393.053 347.984C392.907 348.144 392.751 348.3 392.597 348.456C389.793 351.233 385.521 353.665 380.691 355.899C380.144 356.147 379.59 356.395 379.028 356.642L378.47 356.89C378.098 357.054 377.727 357.218 377.336 357.379C376.955 357.541 376.572 357.701 376.189 357.859L375.027 358.34C372.31 359.457 369.527 360.52 366.81 361.573L365.651 362.022L364.501 362.471C363.739 362.769 362.986 363.066 362.243 363.364L361.137 363.809L360.053 364.254L359.518 364.477C359.164 364.626 358.814 364.772 358.468 364.922C350.478 368.346 344.733 371.831 345.94 376.156C345.973 376.279 346.011 376.395 346.053 376.507C346.161 376.828 346.309 377.131 346.492 377.414C346.6 377.585 346.725 377.745 346.864 377.891C348.284 379.364 350.868 379.131 354.126 377.962C354.39 377.866 354.661 377.764 354.934 377.656C355.121 377.585 355.306 377.51 355.494 377.435L355.775 377.317C356.52 377 357.309 376.649 358.117 376.264C358.319 376.17 358.523 376.079 358.727 375.971C362.709 374.026 367.224 371.402 371.704 369.016C372.391 368.644 373.08 368.288 373.765 367.934C374.885 367.354 376.015 366.795 377.157 366.26C381.399 364.267 385.386 362.852 388.594 362.852C390.097 362.852 391.427 363.16 392.533 363.867L392.718 363.99C393.278 364.385 393.765 364.87 394.163 365.427C394.254 365.558 394.35 365.694 394.431 365.833C394.519 365.977 394.602 366.124 394.681 366.274C396.265 369.278 394.939 372.392 391.837 375.444C388.858 378.373 384.224 381.246 378.955 383.907C378.566 384.105 378.173 384.302 377.777 384.494C362.099 392.187 341.573 397.981 341.285 398.054C335.814 399.47 327.991 401.332 319.179 402.724L317.873 402.926L317.661 402.957C315.663 403.256 313.658 403.521 311.649 403.75L311.464 403.768C307.81 404.184 304.063 404.486 300.309 404.613H300.253C298.904 404.663 297.557 404.686 296.208 404.686H294.655C292.599 404.657 290.544 404.564 288.493 404.407C288.445 404.407 288.395 404.407 288.345 404.397C286.35 404.238 284.361 404.003 282.383 403.693C281.896 403.612 281.376 403.527 280.874 403.44C280.645 403.398 280.418 403.356 280.191 403.311L280.137 403.3C279.415 403.163 278.696 403.011 277.98 402.847C277.566 402.753 277.149 402.659 276.739 402.549L276.494 402.485C276.292 402.434 276.091 402.382 275.89 402.327L275.78 402.297L275.136 402.112L274.439 401.908L274.356 401.883L273.75 401.698C273.521 401.628 273.294 401.553 273.067 401.48C272.88 401.417 272.694 401.353 272.507 401.293L272.097 401.149C271.701 401.012 271.31 400.866 270.919 400.716L270.548 400.573L270.242 400.45C269.652 400.213 269.066 399.965 268.485 399.705L268.098 399.52L268.033 399.491C267.896 399.427 267.761 399.362 267.623 399.304C267.355 399.175 267.089 399.042 266.824 398.906L266.745 398.867L266.362 398.665C265.68 398.311 265.012 397.932 264.359 397.529L264.001 397.311C263.816 397.198 263.647 397.084 263.47 396.97L263.004 396.66C262.834 396.548 262.667 396.433 262.502 396.314L262.202 396.102C261.886 395.875 261.576 395.644 261.27 395.405C261.107 395.28 260.947 395.151 260.787 395.033C260.431 394.748 260.082 394.454 259.739 394.153L259.725 394.14C259.39 393.851 259.063 393.553 258.744 393.246L258.728 393.225C258.561 393.067 258.399 392.909 258.236 392.744C258.076 392.58 257.914 392.418 257.758 392.254C257.599 392.087 257.441 391.919 257.287 391.746C257.138 391.584 256.991 391.419 256.846 391.253L256.796 391.197C256.044 390.324 255.34 389.411 254.689 388.461L254.431 388.08C254.26 387.829 254.092 387.575 253.925 387.321L253.434 386.566C253.025 385.934 252.627 385.296 252.241 384.65C252.106 384.421 251.97 384.194 251.841 383.97C251.768 383.847 251.7 383.722 251.631 383.597C251.562 383.468 251.481 383.337 251.408 383.206L251.292 383C251.252 382.931 251.24 382.911 251.219 382.865C251.077 382.617 250.94 382.366 250.806 382.11C250.746 381.999 250.686 381.887 250.621 381.777L250.434 381.419L250.249 381.063L249.891 380.341L249.72 379.986C249.597 379.73 249.48 379.478 249.364 379.226C249.318 379.124 249.27 379.022 249.229 378.921C249.068 378.573 248.916 378.222 248.773 377.866C248.675 377.631 248.585 377.398 248.489 377.165C248.221 376.478 247.969 375.785 247.738 375.084C247.669 374.876 247.601 374.67 247.54 374.462C247.39 373.99 247.255 373.514 247.134 373.033C246.986 372.473 246.856 371.908 246.745 371.34C246.674 371.005 246.612 370.667 246.56 370.329C246.395 369.336 246.287 368.334 246.235 367.329C246.235 367.219 246.224 367.106 246.222 366.996C246.212 366.776 246.206 366.555 246.204 366.334C246.087 357.447 250.59 348.899 260.214 339.286C277.356 322.171 287.336 297.125 287.336 297.125C287.336 297.125 287.604 296.075 288.164 294.565C288.352 294.063 288.547 293.564 288.753 293.071C288.989 292.513 289.241 291.962 289.511 291.421L289.59 291.263C289.938 290.572 290.315 289.9 290.725 289.245C290.819 289.093 290.91 288.941 291.018 288.792C291.322 288.339 291.644 287.899 291.984 287.473C292.247 287.145 292.526 286.83 292.819 286.53C293.814 285.507 294.949 284.67 296.233 284.223L296.396 284.171C296.504 284.136 296.61 284.102 296.72 284.071C296.849 284.038 296.979 284.007 297.108 283.98L297.166 283.969C297.439 283.915 297.711 283.878 297.988 283.859H298.013C298.157 283.859 298.3 283.844 298.448 283.844C298.817 283.847 299.183 283.876 299.547 283.932C301.092 284.175 302.564 285.095 303.83 286.514L304 286.713C304.413 287.196 304.787 287.712 305.12 288.253C305.37 288.654 305.605 289.077 305.828 289.52C305.918 289.707 306.003 289.877 306.088 290.061C306.13 290.154 306.172 290.246 306.211 290.341C306.295 290.527 306.372 290.714 306.449 290.909C306.884 292.024 307.221 293.175 307.458 294.348C307.71 295.615 307.856 296.901 307.898 298.193C307.912 298.761 307.912 299.335 307.898 299.917C307.887 300.138 307.877 300.36 307.86 300.583C307.689 303.057 307.15 305.491 306.259 307.806C306.17 308.035 306.072 308.268 305.98 308.501C305.532 309.569 305.013 310.606 304.425 311.605C304.09 312.175 303.728 312.741 303.34 313.302L303.103 313.639C302.185 314.921 301.161 316.124 300.041 317.234C298.937 318.338 297.755 319.361 296.504 320.294C295.249 321.22 294.072 322.248 292.986 323.365C289.857 326.648 289.128 329.541 289.832 331.736C289.915 331.984 290.013 332.227 290.125 332.462C290.386 332.972 290.723 333.44 291.127 333.848L291.237 333.958C291.351 334.068 291.472 334.174 291.595 334.276L291.72 334.378C292.024 334.611 292.344 334.819 292.68 335C292.775 335.052 292.865 335.104 292.975 335.154C293.435 335.383 293.916 335.566 294.412 335.705L294.549 335.741L294.734 335.791L294.897 335.83L295.07 335.868L295.242 335.903L295.407 335.93C295.53 335.953 295.655 335.972 295.777 335.988L295.898 336.005L296.113 336.028L296.246 336.04L296.466 336.057H296.593L296.822 336.067H297.545L297.751 336.057L297.988 336.043L298.278 336.015L298.548 335.982C298.609 335.982 298.671 335.966 298.733 335.955C299.886 335.788 301.002 335.431 302.037 334.898C302.913 334.455 303.724 333.896 304.45 333.236L304.744 332.957C304.789 332.912 304.837 332.868 304.881 332.82C305.168 332.533 305.439 332.229 305.691 331.911C306.136 331.349 306.532 330.752 306.875 330.124C310.949 322.722 315.219 315.429 319.68 308.253L320.293 307.273L320.911 306.291C321.221 305.796 321.531 305.305 321.841 304.821L322.156 304.332L322.782 303.356C323.623 302.056 324.466 300.77 325.316 299.497L325.951 298.548C327.225 296.664 328.497 294.829 329.754 293.083L330.383 292.222C331.751 290.334 333.176 288.488 334.657 286.686L335.246 285.983C335.342 285.864 335.431 285.75 335.537 285.636L336.114 284.968C336.21 284.858 336.301 284.749 336.401 284.643L336.959 284.013L337.24 283.709C337.511 283.416 337.786 283.127 338.065 282.84C338.252 282.655 338.425 282.467 338.606 282.295C339.661 281.215 340.825 280.248 342.081 279.409L342.37 279.224L342.663 279.037C342.851 278.92 343.04 278.808 343.234 278.702C348.155 275.912 352.231 275.706 354.575 278.049C355.997 279.469 356.782 281.822 356.74 285.095C356.74 285.24 356.74 285.384 356.728 285.534V285.696C356.728 285.844 356.716 285.996 356.705 286.147C356.705 286.333 356.682 286.52 356.663 286.705C356.645 286.892 356.636 287.034 356.618 287.198C356.618 287.246 356.607 287.294 356.601 287.342C356.586 287.487 356.568 287.635 356.549 287.78C356.549 287.826 356.549 287.87 356.53 287.916C356.509 288.113 356.48 288.311 356.445 288.507C356.422 288.688 356.393 288.87 356.357 289.05C356.343 289.154 356.322 289.255 356.305 289.359C356.251 289.655 356.18 289.948 356.095 290.235C355.935 290.773 355.739 291.299 355.508 291.81C355.408 292.033 355.303 292.255 355.194 292.474C354.969 292.925 354.715 293.387 354.436 293.866C354.296 294.101 354.153 294.344 353.999 294.587L353.766 294.958C353.528 295.33 353.281 295.707 353.022 296.087C352.764 296.468 352.487 296.857 352.19 297.25C351.805 297.774 351.399 298.309 350.97 298.85L350.645 299.26C349.727 300.402 348.786 301.525 347.824 302.63L347.06 303.493L346.671 303.93C346.14 304.523 345.607 305.112 345.07 305.696L344.658 306.142C344.385 306.437 344.1 306.737 343.827 307.034C343.548 307.336 343.265 307.635 342.982 307.935L342.124 308.838L341.256 309.743C340.967 310.044 340.675 310.35 340.382 310.652L338.614 312.472C330.173 321.124 321.277 329.747 318.267 335.123C318.068 335.474 317.886 335.834 317.722 336.203C317.295 337.18 317.116 338.017 317.236 338.693C317.276 338.915 317.355 339.13 317.47 339.323C317.64 339.617 317.846 339.887 318.084 340.128C318.194 340.236 318.309 340.338 318.433 340.43C319.052 340.871 319.801 341.098 320.561 341.075H320.798L321.042 341.058L321.288 341.029L321.49 341C321.517 340.998 321.544 340.992 321.571 340.985L321.756 340.95L321.806 340.938L322.01 340.894L322.083 340.875L322.301 340.819L322.562 340.742C322.732 340.69 322.903 340.632 323.078 340.567C323.455 340.434 323.823 340.28 324.183 340.108C324.275 340.064 324.369 340.022 324.458 339.974L324.735 339.837C325.097 339.654 325.457 339.456 325.82 339.242C326.109 339.071 326.396 338.897 326.684 338.712L326.963 338.526C327.054 338.468 327.148 338.408 327.239 338.339L327.516 338.154L327.662 338.052L328.062 337.773C328.434 337.515 328.782 337.251 329.136 336.983L329.167 336.96L329.725 336.527C330.489 335.924 331.216 335.316 331.871 334.744L332.309 334.359L332.35 334.322L332.577 334.12C333.114 333.64 333.593 333.19 333.993 332.818L334.155 332.66L334.549 332.287L334.784 332.059L334.865 331.975L334.888 331.953L335.288 331.551L335.304 331.534L335.379 331.468C335.402 331.443 335.433 331.418 335.469 331.387L335.498 331.36L335.577 331.289L336 330.917L336.237 330.702C336.354 330.602 336.481 330.488 336.61 330.365L336.895 330.116C336.945 330.074 336.995 330.026 337.047 329.98L337.344 329.72L337.784 329.338L338.015 329.136C338.92 328.347 340.024 327.397 341.287 326.325L341.806 325.888L342.663 325.171L343.538 324.438C344.683 323.49 345.915 322.481 347.218 321.432L348.074 320.746C348.803 320.167 349.552 319.574 350.31 318.979C350.614 318.74 350.924 318.501 351.24 318.264C353.811 316.278 356.422 314.344 359.072 312.464L359.874 311.908C360.432 311.521 360.989 311.137 361.549 310.76L362.055 310.417C363.057 309.743 364.066 309.083 365.084 308.438L365.59 308.12L366.092 307.808C366.594 307.498 367.095 307.19 367.591 306.893L368.088 306.597L369.086 306.017C369.412 305.828 369.737 305.642 370.062 305.459L370.258 305.349L371.032 304.927C371.353 304.752 371.675 304.583 371.994 304.419L372.473 304.174L372.935 303.939C373.992 303.408 375.069 302.917 376.164 302.468C376.313 302.405 376.461 302.345 376.609 302.281C376.903 302.158 377.194 302.045 377.483 301.946C377.773 301.848 378.058 301.746 378.339 301.646C378.595 301.561 378.843 301.482 379.084 301.407L379.166 301.382C379.295 301.342 379.424 301.305 379.553 301.272L379.59 301.261C379.853 301.186 380.115 301.118 380.379 301.055H380.4C380.789 300.962 381.168 300.883 381.539 300.82C381.666 300.799 381.791 300.779 381.911 300.762C382.272 300.708 382.634 300.67 382.996 300.645C383.225 300.629 383.456 300.622 383.685 300.622H383.86C384.093 300.622 384.318 300.637 384.541 300.66C384.643 300.66 384.745 300.679 384.845 300.693H384.886C384.986 300.704 385.088 300.72 385.186 300.741C385.284 300.762 385.384 300.776 385.48 300.799H385.513C385.609 300.82 385.698 300.847 385.798 300.874C386.593 301.088 387.324 301.492 387.93 302.05L387.984 302.104L388.09 302.208L388.194 302.318C389.029 303.196 389.72 304.201 390.241 305.295L390.322 305.48C390.499 305.896 390.638 306.327 390.736 306.768C391.007 307.997 390.934 309.279 390.524 310.469C390.347 310.986 390.13 311.489 389.874 311.973L389.704 312.281C389.055 313.369 388.287 314.382 387.416 315.301L387.228 315.499C386.685 316.077 386.117 316.629 385.523 317.155L385.303 317.355C384.845 317.76 384.376 318.156 383.902 318.543C383.818 318.609 383.733 318.676 383.652 318.746C383.321 319.013 382.979 319.283 382.625 319.554C381.406 320.486 380.163 321.384 378.897 322.252C378.152 322.762 377.381 323.275 376.586 323.798C375.104 324.769 373.611 325.72 372.104 326.652C371.669 326.92 371.232 327.193 370.786 327.463C366.691 329.98 362.151 332.672 357.309 335.599L356.056 336.361C354.684 337.197 353.389 337.996 352.171 338.755L351.557 339.142L350.395 339.887C349.935 340.178 349.488 340.465 349.052 340.748C348.724 340.958 348.403 341.166 348.089 341.372L347.468 341.78C347.166 341.978 346.867 342.175 346.567 342.377L346.275 342.562C345.967 342.768 345.667 342.97 345.376 343.17L344.899 343.494L344.339 343.883L343.823 344.243C343.007 344.815 342.201 345.4 341.402 345.995L341.123 346.207C340.809 346.444 340.505 346.681 340.211 346.912L339.828 347.218C339.183 347.736 338.598 348.233 338.069 348.708L337.811 348.945C337.663 349.08 337.517 349.215 337.38 349.348C337.282 349.44 337.192 349.534 337.095 349.625L336.959 349.758C336.662 350.056 336.372 350.362 336.091 350.676L335.954 350.834C335.648 351.187 335.381 351.527 335.146 351.857L335.042 352.007C334.771 352.402 334.532 352.82 334.328 353.255L334.257 353.407L334.213 353.513L334.178 353.605L334.13 353.732C334.116 353.775 334.086 353.852 334.07 353.919C333.985 354.167 333.921 354.423 333.88 354.682L333.86 354.822L333.843 354.949L333.832 355.071V355.725C333.832 355.779 333.832 355.835 333.845 355.891L333.855 355.991C333.855 356.045 333.87 356.099 333.876 356.155L333.916 356.384V356.395C333.93 356.467 333.945 356.54 333.964 356.613C333.982 356.686 334.001 356.767 334.024 356.844C334.091 357.079 334.172 357.312 334.266 357.539C334.266 357.555 334.28 357.574 334.286 357.591C334.311 357.647 334.334 357.705 334.361 357.761C334.463 357.998 334.578 358.229 334.703 358.456L334.834 358.691L334.971 358.928L335.115 359.166C335.14 359.205 335.167 359.241 335.198 359.276L335.246 359.326L335.296 359.372L335.352 359.415C335.39 359.442 335.43 359.466 335.471 359.488C335.512 359.507 335.558 359.528 335.604 359.544C335.653 359.561 335.703 359.575 335.754 359.588C336.955 359.858 339.424 358.864 342.703 357.133L343.292 356.821L344.289 356.278L344.779 356.008C345.124 355.82 345.48 355.612 345.84 355.406L346.5 355.034C350.837 352.54 356.018 349.334 361.372 346.205C361.872 345.912 362.376 345.62 362.88 345.329L363.891 344.684C364.397 344.393 364.901 344.106 365.407 343.823C367.56 342.6 369.74 341.425 371.946 340.299L372.935 339.798C373.593 339.473 374.244 339.157 374.887 338.849C376.134 338.259 377.393 337.698 378.666 337.168L379.363 336.885L379.449 336.852C383.142 335.389 386.491 334.484 389.202 334.484C389.789 334.48 390.374 334.528 390.953 334.628H390.969C391.157 334.661 391.325 334.699 391.496 334.742H391.527C391.777 334.803 392.023 334.88 392.26 334.975C392.449 335.044 392.633 335.125 392.81 335.221C393.652 335.649 394.362 336.298 394.864 337.097C395.048 337.376 395.206 337.669 395.335 337.977C395.412 338.154 395.483 338.337 395.549 338.535C395.616 338.734 395.674 338.926 395.735 339.132C396.176 340.709 396.132 342.377 395.61 343.929Z" fill="#1D1F23"/>
<path fill-rule="evenodd" clip-rule="evenodd" d="M264.542 187.005C267.001 187.875 268.831 190.523 270.571 193.04C272.924 196.446 275.114 199.612 278.474 197.827C282.439 195.722 285.69 192.489 287.815 188.537C289.941 184.585 290.845 180.091 290.413 175.625C289.931 170.59 287.778 165.86 284.296 162.188C280.814 158.517 276.204 156.114 271.198 155.363C267.319 154.78 263.355 155.211 259.693 156.614C256.031 158.017 252.795 160.345 250.301 163.37C247.446 166.832 245.683 171.062 245.233 175.525C244.783 179.988 245.666 184.485 247.771 188.447C249.329 191.374 252.784 189.994 256.432 188.536C259.292 187.394 262.269 186.204 264.542 187.005ZM157.588 187.007C155.13 187.877 153.298 190.525 151.557 193.042C149.205 196.446 147.015 199.614 143.655 197.829C140.692 196.254 138.115 194.041 136.111 191.351C134.107 188.661 132.724 185.56 132.063 182.272C131.401 178.984 131.477 175.591 132.285 172.336C133.092 169.081 134.612 166.045 136.735 163.447C138.86 160.851 141.534 158.757 144.565 157.317C147.596 155.877 150.909 155.126 154.266 155.117C159.9 155.106 165.338 157.189 169.522 160.96C173.706 164.732 176.337 169.923 176.905 175.526C177.355 179.99 176.47 184.487 174.361 188.449C172.8 191.376 169.344 189.994 165.697 188.536C162.838 187.394 159.861 186.204 157.588 187.007ZM247.996 284.265C264.948 270.918 271.175 249.13 271.175 235.708C271.175 225.098 264.03 228.437 252.595 234.094L251.952 234.414C241.453 239.609 227.48 246.524 212.141 246.524C196.801 246.524 182.828 239.607 172.333 234.412C160.528 228.568 153.123 224.903 153.123 235.71C153.123 249.555 159.747 272.291 177.931 285.501C180.329 280.633 183.707 276.312 187.853 272.809C191.999 269.306 196.824 266.696 202.026 265.143C203.841 264.602 205.711 267.725 207.626 270.92C209.473 274.005 211.359 277.159 213.28 277.159C215.325 277.159 217.336 274.051 219.299 271.016C221.349 267.845 223.348 264.754 225.282 265.372C235.016 268.493 243.158 275.266 247.996 284.265Z" fill="#1D1F23"/>
<path fill-rule="evenodd" clip-rule="evenodd" d="M117.052 205.881C115.442 206.965 113.633 207.721 111.73 208.104C109.826 208.488 107.866 208.492 105.961 208.116C103.093 207.549 100.458 206.143 98.3897 204.078C96.3219 202.012 94.9146 199.38 94.3461 196.514C93.7777 193.648 94.0738 190.678 95.1968 187.98C96.3199 185.283 98.2193 182.979 100.654 181.362C103.908 179.204 107.885 178.423 111.714 179.19C115.544 179.957 118.912 182.21 121.082 185.454C123.252 188.699 124.047 192.671 123.291 196.5C122.536 200.329 120.292 203.702 117.052 205.881ZM328.171 205.881C325.745 207.514 322.889 208.39 319.964 208.396C317.039 208.402 314.178 207.539 311.746 205.917C310.13 204.84 308.743 203.456 307.664 201.843C306.585 200.229 305.836 198.419 305.459 196.515C304.7 192.671 305.499 188.683 307.682 185.427C309.309 183.009 311.616 181.125 314.312 180.015C317.009 178.906 319.974 178.618 322.833 179.19C326.662 179.958 330.029 182.211 332.199 185.455C334.369 188.699 335.164 192.67 334.41 196.499C333.655 200.328 331.411 203.702 328.171 205.881Z" fill="#1D1F23"/>
</svg>
