<svg xmlns="http://www.w3.org/2000/svg" viewBox="0 0 32 32">
  <path fill="#326CE5" d="M15.9.5a2.4 2.4 0 0 0-1 .2L3.6 6.1a2.4 2.4 0 0 0-1.3 1.7l-2 12.5a2.4 2.4 0 0 0 .5 1.9l8 9.7a2.4 2.4 0 0 0 1.8.8h12.8a2.4 2.4 0 0 0 1.8-.8l8-9.7a2.4 2.4 0 0 0 .5-1.9l-2-12.5a2.4 2.4 0 0 0-1.3-1.7L19 .7a2.4 2.4 0 0 0-1-.2h-2.1zm.1 4.4l.4.1.3.3.1.4v4.2l3.6-1.2.3.1.3.2.1.3v.3l-.7 1.8 3.5 2.2.2.3v.4l-.2.3-.3.2-2 .4 1.3 3.4v.3l-.1.3-.3.3-.3.1h-3.8v2.3l-.1.4-.3.2-.4.1-.4-.1-.3-.2-.1-.4v-2.3H12l-.3-.1-.3-.3-.1-.3v-.3l1.3-3.4-2-.4-.3-.2-.2-.3v-.4l.2-.3 3.5-2.2-.7-1.8v-.3l.1-.3.3-.2.3-.1L17.4 9V4.8l.1-.4.3-.3.4-.1h-.2z"/>
  <path fill="#fff" d="M16 7v4l4-1.3zm4.7 5l-3.4 2.2L19 18h3l-.3-3.5zm-9.4 0L10 14.5 9.7 18h3l1.7-3.8zm4.7.8l-2.7 1.7 1 2.5h3.4l1-2.5z"/>
</svg>
