<?xml version="1.0" encoding="utf-8"?>
<svg width="800px" height="800px" viewBox="0 0 32 32" xmlns="http://www.w3.org/2000/svg">
  <path fill="#326CE5" d="M16 2c-.5 0-1 .1-1.4.4L4.1 8.1c-.9.5-1.4 1.4-1.5 2.4l-1.4 12c-.1 1 .3 2 1 2.7l7.7 9.4c.7.8 1.8 1.3 2.9 1.3h6.4c1.1 0 2.2-.5 2.9-1.3l7.7-9.4c.7-.8 1.1-1.8 1-2.7l-1.4-12c-.1-1-.6-1.9-1.5-2.4L17.4 2.4c-.4-.3-.9-.4-1.4-.4z"/>
  <g fill="#fff">
    <path d="M16 7.6c-.4 0-.7.3-.7.7v3.2l-2.7-.9c-.4-.1-.8.1-.9.5s.1.8.5.9l3.1 1c.2.1.4.1.5 0l3.1-1c.4-.1.6-.5.5-.9-.1-.4-.5-.6-.9-.5l-2.7.9V8.3c0-.4-.4-.7-.8-.7z"/>
    <path d="M11.3 13.7c-.1 0-.3 0-.4.1l-2.5 1.7c-.3.2-.4.6-.2.9.2.3.6.4.9.2l2.2-1.5 1.5 2.6c.2.3.6.5.9.3.3-.2.5-.6.3-.9l-1.8-3.1c-.1-.2-.4-.3-.6-.3h-.3z"/>
    <path d="M20.7 13.7c-.3 0-.5.2-.6.4l-1.8 3.1c-.2.3 0 .8.3.9.3.2.7 0 .9-.3l1.5-2.6 2.2 1.5c.3.2.7.1.9-.2.2-.3.1-.7-.2-.9l-2.5-1.7c-.2-.2-.5-.2-.7-.2z"/>
    <path d="M15.2 18.1c-.4.1-.6.4-.6.8l.3 3.3c0 .4.4.7.8.6.4 0 .7-.4.6-.8l-.2-2.8 2.6.6c.4.1.8-.2.9-.6.1-.4-.2-.8-.6-.9l-3.2-.3c-.2 0-.4 0-.6.1z"/>
    <path d="M16.8 18.1l-3.2.3c-.4 0-.7.5-.6.9.1.4.5.7.9.6l2.6-.6-.2 2.8c0 .4.2.7.6.8.4 0 .8-.2.8-.6l.3-3.3c0-.4-.3-.7-.6-.8-.2-.1-.4-.1-.6-.1z"/>
  </g>
</svg>
