<svg width="610" height="610" viewBox="0 0 610 610" fill="none" xmlns="http://www.w3.org/2000/svg">
<path d="M301.589 441.965C301.589 441.965 301.589 244.458 308.146 244.477C313.217 244.477 319.812 499.247 319.812 499.247C310.739 498.18 301.589 457.329 301.589 441.965ZM428.697 246.764C411.179 170.209 372.806 104.387 319.889 53.5851L319.755 53.4707C313.312 43.6345 307.422 32.3495 302.694 20.4545L302.237 19.1582C302.256 19.5395 302.256 19.997 302.256 20.4545C302.256 31.2248 297.433 40.8513 289.827 47.3135L289.77 47.3516C221.641 105.187 178.292 190.416 176.863 285.785V286.033C176.844 287.215 176.844 288.607 176.844 289.998C176.844 384.491 222.308 468.366 292.553 520.94L293.297 521.474L294.955 522.675C298.018 545.347 300.636 568.069 302.809 590.843H314.265C317.43 562.42 321.7 537.544 327.285 513.144L326.408 517.7C333.957 512.458 340.552 507.025 346.71 501.135L346.652 501.192C400.047 451.686 433.368 381.155 433.368 302.865C433.368 301.703 433.368 300.559 433.349 299.396V299.568C433.292 280.867 431.595 262.586 428.373 244.839L428.659 246.726L428.697 246.764Z" fill="#1D1F23"/>
</svg>
