<?xml version="1.0" encoding="utf-8"?>
<svg width="800px" height="800px" viewBox="0 0 32 32" xmlns="http://www.w3.org/2000/svg">
  <defs>
    <linearGradient id="mongo-a" x1="15.5" y1="30" x2="17" y2="25" gradientUnits="userSpaceOnUse">
      <stop offset="0" stop-color="#999875"/>
      <stop offset="1" stop-color="#fbf9ef"/>
    </linearGradient>
    <linearGradient id="mongo-b" x1="17" y1="4" x2="20" y2="26" gradientUnits="userSpaceOnUse">
      <stop offset="0" stop-color="#48a547"/>
      <stop offset="1" stop-color="#3f9143"/>
    </linearGradient>
    <linearGradient id="mongo-c" x1="12" y1="4" x2="16" y2="26" gradientUnits="userSpaceOnUse">
      <stop offset="0" stop-color="#41a247"/>
      <stop offset="1" stop-color="#69b655"/>
    </linearGradient>
  </defs>
  <path d="M16.62,30l-.751-.249s.1-3.8-1.275-4.067c-.9-1.048.133-44.741,3.423-.149a2.712,2.712,0,0,0-1.333,1.523A14.1,14.1,0,0,0,16.62,30Z" fill="url(#mongo-a)"/>
  <path d="M17.026,26.329a13.223,13.223,0,0,0,5-13.225C20.556,6.619,17.075,4.487,16.7,3.673a9.792,9.792,0,0,1-.825-1.6l.277,18.069S15.578,25.664,17.026,26.329Z" fill="url(#mongo-b)"/>
  <path d="M15.487,26.569S9.366,22.4,9.72,15.025A15.54,15.54,0,0,1,15.239,3.377,1.725,1.725,0,0,0,15.846,2c.381.82.319,12.243.359,13.579C16.36,20.776,15.916,25.588,15.487,26.569Z" fill="url(#mongo-c)"/>
</svg>
