<?xml version="1.0" encoding="utf-8"?>
<svg width="800px" height="800px" viewBox="0 0 32 32" xmlns="http://www.w3.org/2000/svg">
  <path d="M25.6 11.3c-.1-1.2-.4-2.2-.9-3.1-.6-1.1-1.5-2-2.6-2.6-1-.5-2.2-.9-3.5-1-1.4-.1-2.7.1-3.9.6-.1 0-.2.1-.3.1-.8-.3-1.7-.5-2.6-.5-1.3-.1-2.5.2-3.5.8-1.1.6-2 1.5-2.5 2.6-.6 1.2-.8 2.6-.6 4 .1.8.3 1.7.6 2.6.3 1 .7 2 1.1 2.9.4.8.8 1.6 1.3 2.2.6.8 1.2 1.4 1.9 1.7.4.2.9.3 1.4.2.4-.1.8-.3 1.2-.6.1.1.3.3.4.4.4.3.8.5 1.3.6.6.1 1.3.1 1.9 0 .6-.1 1.2-.3 1.7-.6v1.7c0 .8.1 1.5.3 2.1.2.6.5 1.1.9 1.4.5.4 1.1.6 1.8.6.5 0 1-.1 1.5-.3.7-.2 1.4-.6 1.9-1.1.5-.5.9-1.1 1.1-1.8.2-.6.3-1.4.4-2.2l.1-1.9c.4-.1.8-.2 1.1-.4.5-.3 1-.6 1.3-1 .4-.5.6-1 .7-1.6.1-.7 0-1.4-.2-2.1-.2-.6-.4-1.2-.7-1.8l.4-.8c.4-.8.6-1.6.7-2.4z" fill="#336791"/>
  <path d="M23.3 16.1c-.3-.8-.8-1.6-1.5-2.2.6-.2 1.1-.5 1.5-.9.3-.3.6-.7.7-1.1.1-.3.1-.7 0-1-.1-.3-.3-.5-.6-.7-.2-.2-.5-.3-.8-.3-.3 0-.7.1-1 .3-.4.2-.7.5-1 .8-.3-.6-.7-1.1-1.2-1.5-.5-.4-1.1-.7-1.7-.8-.5-.1-1-.1-1.5 0-.4.1-.9.3-1.2.5-.3-.3-.6-.5-1-.6-.3-.1-.7-.2-1-.1-.3 0-.6.1-.9.3-.5.3-.9.8-1.1 1.4-.2.6-.3 1.3-.2 2 .1.7.3 1.5.7 2.2.4.8.9 1.5 1.6 2.1-.5.2-.9.5-1.3.9-.3.3-.6.7-.7 1.1-.1.3-.1.7 0 1 .1.3.3.5.6.7.2.2.5.3.8.3.3 0 .7-.1 1-.3.4-.2.7-.5 1-.8.3.6.7 1.1 1.2 1.5.5.4 1.1.7 1.7.8.5.1 1 .1 1.5 0 .4-.1.9-.3 1.2-.5.3.3.6.5 1 .6.3.1.7.2 1 .1.3 0 .6-.1.9-.3.5-.3.9-.8 1.1-1.4.2-.6.3-1.3.2-2-.1-.7-.3-1.4-.8-2.1z" fill="#fff"/>
</svg>
