<svg xmlns="http://www.w3.org/2000/svg" viewBox="0 0 432 448">
  <path fill="#336791" d="M423.3 300.3c-2.9-11.8-11.2-19.1-23.1-22.8-6.2-1.9-12.9-2.5-19.4-3.4-3.7-.5-7.4-.7-11.1-1.1 2.8-14.8 5.4-29.4 8.2-44 3.5-18.4 5.4-37 4.5-55.8-.8-17.5-3.8-34.5-10.8-50.6-11.3-26-29.9-45.1-55.5-56.8-15.2-6.9-31.2-10.5-47.8-11.9-24.5-2.1-48.6.2-72.1 7.4-16.8 5.1-32.4 12.6-46 23.6-3.2 2.6-6.1 5.5-9.4 8.5-1.6-.6-3.3-1.4-5.1-2-23.5-8.1-47.4-10.1-71.5-3.3C41.7 94.5 25 108.2 14.2 127.9c-12.3 22.4-15.6 46.4-12.1 71.3 2.7 19.1 9.3 36.9 19.3 53.3 7.9 13 17.6 24.4 29.6 33.8 2.6 2 5.4 3.8 8.3 5.9-.3 1.2-.6 2.3-.8 3.4-3.6 17.7-4.6 35.5-2.6 53.5 1.7 15.2 5.8 29.6 13.6 42.8 10.1 17 24.4 29.2 42.9 36.4 12.9 5 26.4 7.2 40.3 7.4 13.4.2 26.4-1.8 39.2-5.7 4-1.2 7.8-2.8 11.7-4.2.5-.2 1-.3 1.6-.4.4.5.7.9 1 1.3 10.5 13.6 23.8 23.4 40 29.1 17.8 6.3 36.1 7.7 54.7 3.8 20.5-4.3 37.3-15.1 50.5-31.2 9.9-12.1 16.5-25.8 20.8-40.6 3-10.4 4.7-21 5.9-31.8.9-7.6 1.3-15.2 1.7-22.9.2-3.5.1-7 .1-10.7.7-.1 1.3-.2 1.8-.2 6.6-.3 13.1-.4 19.6-1 10.5-1 20.5-3.7 29.3-9.6 12.8-8.6 18.1-20.8 14.8-35.6z"/>
  <path fill="#fff" d="M358.9 212.8c-1.5-25.9-9.7-49.4-27.6-68.8-14.3-15.4-31.5-25.5-52.2-29.6-25.9-5.1-50.4-1.3-73.2 12.1-5.3 3.1-9.9 7.2-15.5 11.4-.5-.4-.9-.8-1.3-1.1-17.2-13.7-36.7-20.3-58.4-19.9-19.2.3-36.4 6.5-51.3 18.7-12.9 10.6-21.8 24-27.2 39.9-8.9 26.2-7.6 52.3 3.5 77.5 5.7 12.9 14.1 23.9 24.8 33.1 1.7 1.5 3.5 2.8 5.5 4.4-.6 3.2-1.4 6.3-1.8 9.4-2.3 18.7-1.6 37.3 4.1 55.4 5.1 16.3 14 30 28.2 39.8 13.2 9.1 28 13.3 43.9 13.7 15.4.4 30-2.6 43.8-9.4 1.1-.6 2.3-1.1 3.7-1.7.4.6.8 1 1.1 1.5 8.5 14.4 20.4 24.8 36.1 30.5 16.9 6.2 34.3 6.5 51.5 1.1 18.9-5.9 33.2-17.9 43.3-34.7 8.6-14.3 13.6-30 16.3-46.4 2.5-15.1 3.1-30.4 2.6-45.7-.1-3.7-.4-7.4-.6-11.5 2.2-.2 4.2-.4 6.2-.5 8.9-.4 17.6-1.6 25.7-5.4 15.9-7.4 22.6-20.7 19.7-38.1-2.2-13.2-8.9-23.6-19.9-31-9.9-6.7-21.1-9.1-32.8-9.4-5.2-.1-10.4.3-16.1.6zM174.2 159.4c.9-5.8 4.3-9.5 9.1-11.9 9.9-5 20.4-5.7 31.2-3.7 14.2 2.6 25.2 10.1 33.5 21.6 5 6.9 8.5 14.6 11.1 22.7 4.7 14.5 6.6 29.5 6.5 44.7-.1 11.6-1.1 23.1-3.3 34.5-1 5.2-2.4 10.3-3.7 15.6-.5-.2-1-.3-1.4-.6-10.7-6.4-22.3-10.3-34.6-12.3-8-1.3-16.1-1.5-24.2-1.7-6.6-.2-13.3.2-19.9.3-1.5 0-2.9-.1-4.5-.2 0-.6-.1-1.1-.1-1.6.1-35.8-.6-71.6 0-107.4zM94.6 353.1c-5.7-12.4-7.8-25.6-6.5-39.2.6-6.4 1.8-12.7 2.8-19.3.6.3 1 .5 1.4.8 13 9.2 27.6 14.3 43.3 16.5 9.7 1.4 19.4 1.5 29.1.7 7.6-.6 15.1-1.6 22.5-3.1 1.9-.4 3.8-.9 5.8-1.4-.2 1-.3 1.8-.5 2.6-2.5 11-6.3 21.5-12.5 31-8.5 13-19.6 22.8-34.5 27.8-19.9 6.7-38.5 3.4-53-16.4zM342.4 361.9c-1.3 9.4-3.3 18.7-7.3 27.4-5.2 11.4-12.7 20.8-24.3 25.9-14.2 6.3-28.5 5.8-42.1-1.9-10.9-6.2-18.4-15.5-24.1-26.4-.8-1.5-1.4-3.2-2.2-4.8-.3-.7-.8-1.3-1.3-2.1.7-.3 1.2-.5 1.7-.7 12.1-4.1 22.5-11 31.2-20.3 10-10.7 17.3-23 22.5-36.6 1.1-2.8 2-5.6 3.1-8.7.6.5 1 .8 1.3 1.1 4.9 5.7 9.5 11.7 14.8 17 7.5 7.5 16.5 12.3 27.2 13.5 1.9.2 2.2 1 2 2.7-.7 4.6-1.3 9.3-2.5 13.9z"/>
</svg>
