<svg width="1230" height="669" viewBox="0 0 1230 669" fill="none" xmlns="http://www.w3.org/2000/svg">
<path d="M706.069 290.346C712.599 290.346 718.943 291.279 725.101 293.145C731.071 295.198 734.243 297.811 734.243 300.984C734.243 302.664 733.683 304.343 732.564 305.837C731.818 307.33 730.138 308.449 728.459 308.449C726.033 307.703 723.608 306.77 721.182 305.65C716.518 303.597 711.48 302.477 706.255 302.664C700.845 302.477 695.247 303.784 690.582 306.583C686.478 309.383 684.238 314.235 684.612 319.274C684.425 323.94 686.291 328.42 689.836 331.406C693.754 334.579 698.232 337.192 703.084 338.685C708.308 340.551 713.532 342.604 718.757 345.03C723.981 347.643 728.459 351.563 731.818 356.415C735.549 362.388 737.415 369.293 737.229 376.385C737.229 387.397 734.057 395.796 727.526 401.395C720.436 407.367 711.293 410.353 701.964 409.793C693.568 409.98 685.171 407.927 677.895 403.821C671.178 399.342 667.819 395.422 667.819 391.503C667.819 389.637 668.565 387.957 669.685 386.464C670.618 385.157 671.924 384.224 673.603 384.037C675.096 384.224 676.402 384.971 677.335 386.09C678.827 387.397 680.32 388.89 681.999 390.57C684.238 392.623 686.851 394.116 689.649 395.049C693.381 396.542 697.486 397.102 701.404 397.102C707.375 397.475 713.159 395.609 717.824 392.063C721.929 388.33 724.168 382.731 723.794 377.132C723.981 371.719 722.115 366.68 718.383 362.761C714.652 359.028 710.174 356.229 705.136 354.362C699.912 352.496 694.874 350.443 689.463 348.203C684.238 345.964 679.76 342.604 676.215 338.125C672.484 333.086 670.431 326.927 670.804 320.581C670.618 315.542 671.737 310.502 673.976 305.837C675.842 301.917 678.828 298.744 682.559 296.505C686.104 294.452 689.836 292.959 693.754 291.839C697.859 290.906 701.964 290.346 706.069 290.346ZM610.538 299.118C616.881 304.717 620.053 313.675 620.053 325.62V373.959C620.053 386.09 616.881 394.862 610.538 400.462C595.611 411.846 575.086 411.846 560.16 400.462C554.002 394.862 550.83 386.09 550.83 373.959V325.62C550.83 313.489 554.002 304.717 560.16 299.118C575.086 287.919 595.611 287.919 610.538 299.118ZM1071.59 290.719C1076.07 290.719 1078.87 292.212 1079.8 295.385L1112.82 401.768V402.701C1112.82 404.381 1111.7 405.874 1110.21 406.621C1108.53 407.74 1106.48 408.3 1104.24 408.114C1102.19 408.3 1100.14 407.18 1099.39 405.127L1092.3 381.611H1050.13L1043.04 405.127C1042.48 407.18 1040.24 408.487 1038.19 408.3C1036.32 408.3 1034.46 407.74 1032.78 406.621C1031.1 405.874 1030.17 404.381 1030.17 402.515C1030.17 402.141 1030.35 401.581 1030.54 401.208L1063.38 295.385C1064.31 292.212 1067.11 290.719 1071.59 290.719ZM905.155 290.719C909.446 290.719 912.991 293.519 915.977 299.304L941.166 347.643L966.541 299.304C969.713 293.705 973.258 290.719 977.363 290.719C980.535 290.159 983.52 292.399 984.08 295.572C984.267 296.131 984.267 296.691 984.08 297.251V403.074C984.08 404.568 983.334 405.874 982.028 406.621C979.042 408.3 975.497 408.3 972.512 406.621C971.206 405.874 970.459 404.568 970.459 403.074V318.901L946.203 364.441C945.457 366.68 943.405 368.36 940.979 368.36C938.74 368.173 936.688 366.68 935.941 364.441L911.685 317.968V403.074C911.685 404.568 910.939 405.874 909.633 406.621C908.327 407.554 906.647 408.114 905.155 408.114C903.476 408.114 901.796 407.74 900.49 406.807C898.997 406.247 898.065 404.754 898.251 403.261V297.438C897.691 294.265 899.93 291.279 903.102 290.719C903.849 290.532 904.595 290.532 905.155 290.719ZM1166 290.532C1168.05 290.532 1170.11 291.279 1171.78 292.585C1173.65 294.452 1175.33 296.691 1176.26 299.118L1216.38 377.505V295.198C1216.38 293.705 1217.12 292.399 1218.43 291.839C1221.42 290.159 1224.96 290.159 1227.95 291.839C1229.25 292.585 1230 293.892 1230 295.198V403.261C1230 404.754 1229.25 406.061 1227.95 406.807C1226.45 407.74 1224.96 408.114 1223.28 408.114C1219.55 407.927 1216.19 405.501 1214.89 401.955L1172.72 321.141V403.261C1172.72 404.754 1171.97 406.061 1170.85 406.807C1167.87 408.487 1164.32 408.487 1161.34 406.807C1160.03 406.061 1159.28 404.754 1159.28 403.261V295.198C1159.28 292.025 1161.52 290.532 1166 290.532ZM439.253 290.532H469.666C478.622 290.159 487.578 293.145 494.482 298.931C500.639 304.53 503.811 313.302 503.811 325.247V326.74C503.811 338.685 500.639 347.643 494.295 353.242C487.205 359.028 478.249 362.201 469.106 361.641H447.462V403.261C447.462 404.754 446.716 406.061 445.41 406.807C442.425 408.487 438.88 408.487 435.894 406.807C434.588 406.061 433.842 404.754 433.842 403.261V295.198C433.842 293.892 434.402 292.772 435.334 291.839C436.454 290.906 437.76 290.346 439.253 290.532ZM847.5 290.532C848.993 290.532 850.299 291.092 851.045 292.399C851.978 293.519 852.351 295.012 852.351 296.505C852.351 297.998 851.978 299.678 851.045 300.984C850.299 302.29 848.993 302.85 847.5 302.85H821.938V403.261C821.938 404.754 821.192 406.061 819.886 406.807C816.9 408.487 813.355 408.487 810.37 406.807C809.064 406.061 808.317 404.754 808.317 403.261V302.85H782.382C780.889 302.85 779.583 302.29 778.837 300.984C777.904 299.678 777.344 298.184 777.344 296.505C777.344 295.012 777.717 293.519 778.65 292.399C779.397 291.092 780.703 290.532 782.195 290.532H847.5ZM585.535 302.664C571.541 302.664 564.638 310.129 564.638 325.433L564.451 373.959C564.451 389.077 571.355 396.729 585.535 396.729C591.319 397.102 596.917 395.049 601.208 391.13C605.313 386.464 607.179 380.305 606.806 373.959V325.433C607.366 319.274 605.313 313.115 601.208 308.263C596.917 304.343 591.319 302.29 585.535 302.664ZM1071.59 310.316L1053.49 370.413H1089.5L1071.59 310.316ZM469.106 302.85H447.462L447.276 350.443H469.106C474.89 350.816 480.675 348.763 484.779 344.657C488.884 339.991 490.937 333.832 490.377 327.486V325.62C490.937 319.461 488.884 313.302 484.779 308.449C480.488 304.53 474.89 302.477 469.106 302.85Z" fill="#1D1F23"/>
<path d="M371.71 373.586C384.771 271.309 312.563 177.804 210.501 164.74C108.439 151.675 14.5872 223.904 1.52631 325.994C-11.5346 428.084 60.6737 521.776 162.735 535.027C264.984 548.092 358.463 475.864 371.71 373.586Z" fill="#1D1F23"/>
<path d="M253.977 283.068L175.239 361.828L153.035 339.619C230.468 262.164 238.118 268.883 253.977 283.068Z" fill="white"/>
<path d="M175.238 363.695C174.679 363.695 174.306 363.508 173.932 363.135L151.542 340.925C150.796 340.179 150.796 339.059 151.542 338.312C230.281 259.551 238.491 267.017 255.097 281.948C255.47 282.321 255.656 282.694 255.656 283.254C255.656 283.814 255.47 284.187 255.097 284.561L176.358 363.135C176.171 363.508 175.612 363.695 175.238 363.695ZM155.647 339.619L175.238 359.215L251.178 283.254C237.371 270.936 228.042 267.203 155.647 339.619Z" fill="#1D1F23"/>
<path d="M197.815 384.411L176.357 362.947L255.096 284.187C276.18 305.463 244.647 339.991 197.815 384.411Z" fill="white"/>
<path d="M197.814 386.278C197.254 386.278 196.881 386.091 196.508 385.718L175.051 364.255C174.678 363.882 174.678 363.508 174.678 362.948C174.678 362.389 174.864 362.015 175.237 361.642L253.976 282.881C254.723 282.135 255.842 282.135 256.588 282.881C261.44 287.36 264.052 293.706 263.865 300.238C263.492 320.955 239.982 347.271 199.307 385.718C198.747 386.091 198.187 386.278 197.814 386.278ZM178.969 362.948C190.911 375.08 195.948 379.932 197.814 381.799C229.16 351.937 259.574 321.328 259.76 300.238C259.947 295.386 258.081 290.533 254.909 286.801L178.969 362.948Z" fill="#1D1F23"/>
<path d="M153.409 340.177L169.269 356.041C169.642 356.415 169.642 356.788 169.269 357.161C169.082 357.348 169.082 357.348 168.895 357.348L136.057 364.44C134.377 364.627 132.885 363.507 132.511 361.827C132.325 360.894 132.698 359.961 133.258 359.401L152.289 340.364C152.663 339.99 153.222 339.804 153.409 340.177Z" fill="white"/>
<path d="M135.498 366.308C132.699 366.308 130.646 364.068 130.646 361.268C130.646 359.962 131.206 358.655 132.139 357.722L151.171 338.685C152.29 337.752 153.783 337.752 154.902 338.685L170.762 354.549C171.882 355.483 171.882 357.162 170.762 358.282C170.389 358.655 170.016 358.842 169.456 359.029L136.617 366.121C136.244 366.121 135.871 366.308 135.498 366.308ZM152.85 342.231L134.565 360.522C134.192 360.895 134.005 361.455 134.378 362.015C134.565 362.575 135.125 362.761 135.684 362.575L166.471 355.856L152.85 342.231Z" fill="#1D1F23"/>
<path d="M295.584 239.395C283.643 227.823 264.424 228.196 252.856 240.328C241.288 252.459 241.661 271.496 253.789 283.068C263.678 292.586 278.605 294.266 290.36 287.174L269.089 265.897L295.584 239.395Z" fill="white"/>
<path d="M274.688 293.332C256.963 293.332 242.596 278.961 242.596 261.23C242.596 243.5 256.963 229.129 274.688 229.129C282.898 229.129 290.921 232.302 296.892 238.087C297.265 238.461 297.452 238.834 297.452 239.394C297.452 239.954 297.265 240.327 296.892 240.7L271.703 265.896L291.481 285.68C292.227 286.426 292.227 287.546 291.481 288.293C291.294 288.479 291.294 288.479 291.108 288.666C286.257 291.652 280.472 293.332 274.688 293.332ZM274.688 233.048C259.015 233.048 246.327 245.74 246.514 261.417C246.514 277.095 259.202 289.786 274.875 289.599C279.166 289.599 283.458 288.666 287.376 286.613L267.785 267.203C267.411 266.83 267.225 266.456 267.225 265.896C267.225 265.336 267.411 264.963 267.785 264.59L292.787 239.581C287.749 235.288 281.405 233.048 274.688 233.048Z" fill="#1D1F23"/>
<path d="M296.145 239.953L295.771 239.58L269.09 265.896L290.174 286.986C292.226 285.679 294.279 284.186 295.958 282.507C307.899 270.748 307.899 251.711 296.145 239.953Z" fill="white"/>
<path d="M290.361 289.039C289.801 289.039 289.428 288.853 289.055 288.479L267.784 267.203C267.411 266.829 267.225 266.456 267.225 265.896C267.225 265.336 267.411 264.963 267.784 264.59L294.279 238.087C295.026 237.341 296.145 237.341 296.892 238.087L297.451 238.461C309.952 250.965 309.953 271.122 297.638 283.813C295.772 285.68 293.72 287.359 291.481 288.666C290.921 288.853 290.548 289.039 290.361 289.039ZM271.703 265.896L290.548 284.747C292.04 283.813 293.533 282.507 294.653 281.387C305.288 270.749 305.848 253.391 295.585 242.193L271.703 265.896Z" fill="#1D1F23"/>
<path d="M257.148 286.427C252.67 281.948 245.393 281.948 240.915 286.427L170.572 356.789L182.327 368.547L256.774 303.224C261.626 299.118 261.999 291.839 257.894 286.987C257.521 286.8 257.334 286.613 257.148 286.427Z" fill="white"/>
<path d="M182.142 370.414C181.582 370.414 181.209 370.227 180.836 369.854L169.081 358.096C168.335 357.349 168.335 356.229 169.081 355.483L239.424 285.121C244.648 279.895 253.044 279.895 258.269 285.121C263.493 290.346 263.493 298.745 258.269 303.971C258.082 304.158 257.896 304.344 257.709 304.531L183.262 369.854C183.075 370.227 182.702 370.414 182.142 370.414ZM173.186 356.789L182.329 365.934L255.47 301.731C259.575 298.372 259.948 292.213 256.589 288.107C253.231 284.001 247.074 283.627 242.969 286.987C242.782 287.174 242.596 287.36 242.222 287.547L173.186 356.789Z" fill="#1D1F23"/>
<path d="M116.652 436.855C115.905 437.228 115.532 437.975 115.719 438.722L118.891 452.159C119.637 454.026 118.518 456.265 116.465 456.825C114.972 457.385 113.293 456.825 112.36 455.705L91.8359 435.362L158.82 368.359L181.956 368.733L197.629 384.41C193.898 387.583 171.321 409.42 116.652 436.855Z" fill="white"/>
<path d="M115.16 458.693C113.667 458.693 112.174 458.133 111.241 457.013L90.9035 436.67C90.5303 436.296 90.3438 435.923 90.3438 435.363C90.3438 434.803 90.5303 434.43 90.9035 434.057L157.887 367.054C158.261 366.681 158.82 366.494 159.194 366.494L182.33 366.867C182.89 366.867 183.263 367.054 183.636 367.427L199.309 383.105C199.682 383.478 199.869 384.038 199.869 384.598C199.869 385.158 199.682 385.531 199.123 385.904L197.817 387.024C178.039 404.381 151.17 421.739 117.772 438.349L120.944 451.601C121.503 454.027 120.384 456.64 118.145 457.946C117.025 458.506 116.092 458.693 115.16 458.693ZM94.6352 435.363L113.853 454.4C114.413 455.333 115.533 455.707 116.466 455.147C117.399 454.587 117.772 453.467 117.212 452.534L114.04 439.096C113.667 437.416 114.413 435.923 115.906 435.177C148.931 418.566 175.613 401.395 195.204 384.411L181.397 370.6L159.94 370.227L94.6352 435.363Z" fill="#1D1F23"/>
<path d="M75.9756 451.414L92.0219 435.363L115.905 459.253L77.8414 456.64C76.1622 456.453 75.0427 454.96 75.2293 453.28C75.2293 452.534 75.4158 451.787 75.9756 451.414Z" fill="white"/>
<path d="M115.905 460.933L77.6549 458.32C74.8562 458.133 72.9903 455.707 73.1769 452.907C73.3635 451.788 73.7366 450.668 74.6696 449.921L90.7159 433.87C91.4622 433.124 92.5817 433.124 93.328 433.87L117.211 457.76C117.771 458.32 117.957 459.066 117.584 459.813C117.211 460.56 116.651 460.933 115.905 460.933ZM92.0219 437.976L77.2818 452.721C76.722 453.094 76.722 454.027 77.2818 454.401C77.4683 454.587 77.6549 454.774 78.0281 454.774L111.054 457.013L92.0219 437.976Z" fill="#1D1F23"/>
<path d="M152.29 376.945C151.17 376.945 150.424 376.012 150.424 375.079C150.424 374.519 150.61 374.145 150.984 373.772L169.082 355.668C169.829 354.922 170.948 354.922 171.694 355.668L183.449 367.426C184.009 367.986 184.196 368.546 184.009 369.293C183.822 369.853 183.263 370.413 182.516 370.599L152.663 376.945C152.476 376.945 152.29 376.945 152.29 376.945ZM170.388 359.588L158.074 371.906L178.225 367.613L170.388 359.588Z" fill="#1D1F23"/>
<path d="M181.956 368.734L161.432 373.213C159.939 373.586 158.446 372.653 158.073 371.16C157.887 370.227 158.073 369.294 158.819 368.547L170.201 357.162L181.956 368.734Z" fill="white"/>
<path d="M161.057 375.079C158.445 375.079 156.393 373.026 156.393 370.413C156.393 369.106 156.952 367.986 157.699 367.053L169.08 355.668C169.827 354.922 170.946 354.922 171.693 355.668L183.447 367.426C184.007 367.986 184.194 368.546 184.007 369.293C183.821 369.853 183.261 370.413 182.514 370.599L161.99 375.079C161.617 375.079 161.244 375.079 161.057 375.079ZM170.386 359.588L160.311 369.666C159.938 370.039 159.938 370.413 160.124 370.786C160.311 371.159 160.684 371.346 161.244 371.346L178.41 367.613L170.386 359.588Z" fill="#1D1F23"/>
<path d="M296.331 257.872C295.958 256.752 294.652 256.192 293.532 256.565C292.413 256.939 291.853 258.245 292.226 259.365C292.226 259.552 292.413 259.738 292.413 259.925C293.532 262.164 293.159 264.964 291.667 267.017C290.92 267.95 291.107 269.257 291.853 270.003C292.786 270.75 294.092 270.563 294.838 269.63C297.637 266.084 298.197 261.605 296.331 257.872Z" fill="#1D1F23"/>
</svg>
