<svg width="1202" height="487" viewBox="0 0 1202 487" fill="none" xmlns="http://www.w3.org/2000/svg">
<path d="M267.183 126.577V147.799H119.231V315.065H95.4766V126.577H267.183Z" fill="#1D1F23"/>
<path d="M267.179 166.822V188.045H164.081V315.064H140.312V166.822H267.179Z" fill="#1D1F23"/>
<path d="M267.18 206.925V228.261H208.935V315.064H185.152V206.925H267.18Z" fill="#1D1F23"/>
<path d="M334.818 204.854C363.098 204.854 386.853 223.62 386.853 258.51C386.853 260.824 386.853 262.78 386.61 266.308H301.656C302.755 283.988 317.017 295.685 334.932 295.685C350.036 295.685 360.172 288.73 365.753 279.233L383.926 292.157C374.176 307.524 357.374 317.264 334.704 317.264C301.927 317.264 278.287 293.971 278.287 261.067C278.401 229.247 302.042 204.869 334.847 204.869M302.912 248.87H362.998C360.429 233.26 347.895 224.849 333.99 224.849C320.086 224.849 306.082 232.889 302.912 248.87Z" fill="#1D1F23"/>
<path d="M410.979 206.925H434.733V221.421C440.829 212.766 453.991 204.84 469.465 204.84C499.087 204.84 521.5 230.09 521.5 261.038C521.5 291.986 499.073 317.235 469.465 317.235C453.862 317.235 440.7 309.195 434.733 300.526V360.151H410.979V206.911V206.925ZM465.197 226.419C445.939 226.419 432.777 241.529 432.777 261.052C432.777 280.575 445.954 295.685 465.197 295.685C484.44 295.685 497.36 280.575 497.36 261.052C497.36 241.529 484.183 226.419 465.197 226.419Z" fill="#1D1F23"/>
<path d="M569.524 152.913H545.77V314.937H569.524V152.913Z" fill="#1D1F23"/>
<path d="M613.419 183.404C604.768 183.404 597.459 176.334 597.459 167.437C597.459 158.539 604.768 151.713 613.419 151.713C622.07 151.713 629.136 158.897 629.136 167.437C629.136 175.977 622.298 183.404 613.419 183.404ZM601.599 206.925H625.353V314.951H601.599V206.925Z" fill="#1D1F23"/>
<path d="M706.525 317.136C674.105 317.136 649.494 292.872 649.494 260.938C649.494 229.005 674.119 204.74 706.525 204.74C728.823 204.74 747.596 216.694 756.86 234.603L736.147 245.828C730.907 234.86 720.429 226.805 706.525 226.805C687.267 226.805 673.748 241.687 673.748 260.938C673.748 280.19 687.396 295.071 706.525 295.071C720.287 295.071 730.893 287.03 736.147 276.048L756.86 287.273C747.596 305.311 728.695 317.136 706.525 317.136Z" fill="#1D1F23"/>
<path d="M822.913 204.854C838.516 204.854 851.421 212.895 857.531 221.435V206.94H881.286V314.965H857.531V300.469C851.436 309.124 838.516 317.179 822.913 317.179C793.292 317.179 770.879 291.929 770.879 260.981C770.879 230.033 793.306 204.897 822.913 204.897M827.296 226.448C808.038 226.448 795.133 241.558 795.133 261.081C795.133 280.604 808.052 295.714 827.296 295.714C846.539 295.714 859.459 280.604 859.459 261.081C859.459 241.558 846.425 226.448 827.296 226.448Z" fill="#1D1F23"/>
<path d="M921.987 315.064V228.147H899.432V206.925H921.987V176.934H945.756V206.925H986.684V228.147H945.756V293.728H986.684V315.064H921.987Z" fill="#1D1F23"/>
<path d="M1054.46 204.854C1082.74 204.854 1106.5 223.62 1106.5 258.51C1106.5 260.824 1106.5 262.78 1106.25 266.308H1021.3C1022.4 283.988 1036.66 295.685 1054.58 295.685C1069.68 295.685 1079.82 288.73 1085.4 279.233L1103.57 292.157C1093.82 307.524 1077.02 317.264 1054.35 317.264C1021.57 317.264 997.932 293.971 997.932 261.067C998.174 229.247 1021.69 204.869 1054.49 204.869M1022.54 248.87H1082.63C1080.06 233.26 1067.52 224.849 1053.62 224.849C1039.72 224.849 1025.84 232.889 1022.54 248.87Z" fill="#1D1F23"/>
</svg>
