<svg xmlns="http://www.w3.org/2000/svg" viewBox="0 0 400 400">
  <path fill="#3178C6" d="M0 200V0h400v400H0"/>
  <path fill="#fff" d="M87.7 200.7V217h52v148h36.9V217h52v-16c0-9 0-16.3-.4-16.5 0-.3-31.7-.4-70.2-.4l-70 .3v16.4l-.3-.1zM321.4 184c10.2 2.4 18 7 25 14.3 3.7 4 9.2 11 9.6 12.8 0 .6-17.3 12.3-27.8 18.8-.4.3-2-1.4-3.6-4-5.2-7.4-10.5-10.6-18.8-11.2-12-.8-20 5.5-20 16 0 3 .6 5 2 7.3 3 4.6 8.6 7.8 30.5 16.8 40.3 16.6 57.5 27.5 66.4 42.4 10 16.6 12.2 43 5.4 62.5-7.5 21.4-26 36.2-53 42-8.3 1.7-28 1.5-37-.4-19.6-4-38-14.4-49-27.8-4.3-5.3-12.8-19-12.4-20 .2-.2 2.3-1.6 4.7-3l15.3-9 11.8-7 2.5 3.6c3.5 5.3 11.2 12.5 15.7 14.8 13 6.4 31 5.4 40-2 3.8-3.2 5.4-6.5 5.4-11.3 0-4.3-.6-6.2-3-9.5-3-4.3-9.3-8-33-18.2-27.2-11.6-39-19-48-29.7-5.3-6.2-10.2-16.3-12-24.2-1.5-6.8-1.8-23.6-.6-30.4 4.3-24 22-42.2 47-48.4 8-2 26.3-1.6 34.7.8z"/>
</svg>
